<?xml version="1.0" encoding="utf-8" standalone="no"?>
<!DOCTYPE svg PUBLIC "-//W3C//DTD SVG 1.1//EN"
  "http://www.w3.org/Graphics/SVG/1.1/DTD/svg11.dtd">
<svg xmlns:xlink="http://www.w3.org/1999/xlink" width="458.067812pt" height="316.975875pt" viewBox="0 0 458.067812 316.975875" xmlns="http://www.w3.org/2000/svg" version="1.1">
 <metadata>
  <rdf:RDF xmlns:dc="http://purl.org/dc/elements/1.1/" xmlns:cc="http://creativecommons.org/ns#" xmlns:rdf="http://www.w3.org/1999/02/22-rdf-syntax-ns#">
   <cc:Work>
    <dc:type rdf:resource="http://purl.org/dc/dcmitype/StillImage"/>
    <dc:date>2026-09-12T19:30:18.618806</dc:date>
    <dc:format>image/svg+xml</dc:format>
    <dc:creator>
     <cc:Agent>
      <dc:title>Matplotlib v3.10.6, https://matplotlib.org/</dc:title>
     </cc:Agent>
    </dc:creator>
   </cc:Work>
  </rdf:RDF>
 </metadata>
 <defs>
  <style type="text/css">*{stroke-linejoin: round; stroke-linecap: butt}</style>
 </defs>
 <g id="figure_1">
  <g id="patch_1">
   <path d="M 0 316.975875 
L 458.067812 316.975875 
L 458.067812 0 
L 0 0 
z
" style="fill: #ffffff"/>
  </g>
  <g id="axes_1">
   <g id="patch_2">
    <path d="M 49.107813 277.8165 
L 450.867813 277.8165 
L 450.867813 22.7925 
L 49.107813 22.7925 
z
" style="fill: #ffffff"/>
   </g>
   <g id="matplotlib.axis_1">
    <g id="xtick_1">
     <g id="line2d_1">
      <path d="M 67.369631 277.8165 
L 67.369631 22.7925 
" clip-path="url(#paac895592b)" style="fill: none; stroke: #b0b0b0; stroke-opacity: 0.25; stroke-width: 0.8; stroke-linecap: square"/>
     </g>
     <g id="line2d_2">
      <defs>
       <path id="mb4925c99d7" d="M 0 0 
L 0 3.5 
" style="stroke: #000000; stroke-width: 0.8"/>
      </defs>
      <g>
       <use xlink:href="#mb4925c99d7" x="67.369631" y="277.8165" style="stroke: #000000; stroke-width: 0.8"/>
      </g>
     </g>
     <g id="text_1">
      <!-- 0.0 -->
      <g transform="translate(60.301662 292.81025) scale(0.1 -0.1)">
       <defs>
        <path id="MicrosoftYaHei-30" d="M 284 2325 
Q 284 3606 709 4264 
Q 1134 4922 1941 4922 
Q 3478 4922 3478 2441 
Q 3478 1216 3045 567 
Q 2613 -81 1831 -81 
Q 1094 -81 689 534 
Q 284 1150 284 2325 
z
M 909 2353 
Q 909 425 1888 425 
Q 2850 425 2850 2384 
Q 2850 4413 1906 4413 
Q 909 4413 909 2353 
z
" transform="scale(0.015625)"/>
        <path id="MicrosoftYaHei-2e" d="M 372 322 
Q 372 491 487 606 
Q 603 722 775 722 
Q 950 722 1065 605 
Q 1181 488 1181 322 
Q 1181 159 1065 42 
Q 950 -75 772 -75 
Q 600 -75 486 42 
Q 372 159 372 322 
z
" transform="scale(0.015625)"/>
       </defs>
       <use xlink:href="#MicrosoftYaHei-30"/>
       <use xlink:href="#MicrosoftYaHei-2e" transform="translate(58.642578 0)"/>
       <use xlink:href="#MicrosoftYaHei-30" transform="translate(82.714844 0)"/>
      </g>
     </g>
    </g>
    <g id="xtick_2">
     <g id="line2d_3">
      <path d="M 120.533585 277.8165 
L 120.533585 22.7925 
" clip-path="url(#paac895592b)" style="fill: none; stroke: #b0b0b0; stroke-opacity: 0.25; stroke-width: 0.8; stroke-linecap: square"/>
     </g>
     <g id="line2d_4">
      <g>
       <use xlink:href="#mb4925c99d7" x="120.533585" y="277.8165" style="stroke: #000000; stroke-width: 0.8"/>
      </g>
     </g>
     <g id="text_2">
      <!-- 0.2 -->
      <g transform="translate(113.465616 292.81025) scale(0.1 -0.1)">
       <defs>
        <path id="MicrosoftYaHei-32" d="M 2666 3572 
Q 2666 3963 2419 4186 
Q 2172 4409 1747 4409 
Q 1447 4409 1140 4256 
Q 834 4103 569 3819 
L 569 4413 
Q 806 4659 1107 4790 
Q 1409 4922 1816 4922 
Q 2472 4922 2872 4570 
Q 3272 4219 3272 3619 
Q 3272 3084 3026 2693 
Q 2781 2303 2188 1894 
Q 1581 1475 1376 1294 
Q 1172 1113 1090 947 
Q 1009 781 1009 544 
L 3416 544 
L 3416 0 
L 372 0 
L 372 241 
Q 372 659 486 951 
Q 600 1244 862 1520 
Q 1125 1797 1681 2184 
Q 2250 2584 2458 2886 
Q 2666 3188 2666 3572 
z
" transform="scale(0.015625)"/>
       </defs>
       <use xlink:href="#MicrosoftYaHei-30"/>
       <use xlink:href="#MicrosoftYaHei-2e" transform="translate(58.642578 0)"/>
       <use xlink:href="#MicrosoftYaHei-32" transform="translate(82.714844 0)"/>
      </g>
     </g>
    </g>
    <g id="xtick_3">
     <g id="line2d_5">
      <path d="M 173.697539 277.8165 
L 173.697539 22.7925 
" clip-path="url(#paac895592b)" style="fill: none; stroke: #b0b0b0; stroke-opacity: 0.25; stroke-width: 0.8; stroke-linecap: square"/>
     </g>
     <g id="line2d_6">
      <g>
       <use xlink:href="#mb4925c99d7" x="173.697539" y="277.8165" style="stroke: #000000; stroke-width: 0.8"/>
      </g>
     </g>
     <g id="text_3">
      <!-- 0.4 -->
      <g transform="translate(166.62957 292.81025) scale(0.1 -0.1)">
       <defs>
        <path id="MicrosoftYaHei-34" d="M 2906 4841 
L 2906 1644 
L 3631 1644 
L 3631 1138 
L 2906 1138 
L 2906 0 
L 2313 0 
L 2313 1138 
L 53 1138 
L 53 1616 
Q 656 2294 1265 3178 
Q 1875 4063 2272 4841 
L 2906 4841 
z
M 741 1644 
L 2313 1644 
L 2313 3950 
Q 1988 3366 1616 2817 
Q 1244 2269 741 1644 
z
" transform="scale(0.015625)"/>
       </defs>
       <use xlink:href="#MicrosoftYaHei-30"/>
       <use xlink:href="#MicrosoftYaHei-2e" transform="translate(58.642578 0)"/>
       <use xlink:href="#MicrosoftYaHei-34" transform="translate(82.714844 0)"/>
      </g>
     </g>
    </g>
    <g id="xtick_4">
     <g id="line2d_7">
      <path d="M 226.861493 277.8165 
L 226.861493 22.7925 
" clip-path="url(#paac895592b)" style="fill: none; stroke: #b0b0b0; stroke-opacity: 0.25; stroke-width: 0.8; stroke-linecap: square"/>
     </g>
     <g id="line2d_8">
      <g>
       <use xlink:href="#mb4925c99d7" x="226.861493" y="277.8165" style="stroke: #000000; stroke-width: 0.8"/>
      </g>
     </g>
     <g id="text_4">
      <!-- 0.6 -->
      <g transform="translate(219.793524 292.81025) scale(0.1 -0.1)">
       <defs>
        <path id="MicrosoftYaHei-36" d="M 3181 4219 
Q 2803 4413 2391 4413 
Q 1763 4413 1381 3866 
Q 1000 3319 994 2372 
L 1009 2372 
Q 1353 3038 2106 3038 
Q 2734 3038 3109 2628 
Q 3484 2219 3484 1541 
Q 3484 831 3051 375 
Q 2619 -81 1947 -81 
Q 1209 -81 789 495 
Q 369 1072 369 2131 
Q 369 3413 920 4167 
Q 1472 4922 2372 4922 
Q 2888 4922 3181 4781 
L 3181 4219 
z
M 1031 1584 
Q 1031 1106 1286 765 
Q 1541 425 1963 425 
Q 2363 425 2613 719 
Q 2863 1013 2863 1475 
Q 2863 1975 2627 2253 
Q 2391 2531 1956 2531 
Q 1544 2531 1287 2250 
Q 1031 1969 1031 1584 
z
" transform="scale(0.015625)"/>
       </defs>
       <use xlink:href="#MicrosoftYaHei-30"/>
       <use xlink:href="#MicrosoftYaHei-2e" transform="translate(58.642578 0)"/>
       <use xlink:href="#MicrosoftYaHei-36" transform="translate(82.714844 0)"/>
      </g>
     </g>
    </g>
    <g id="xtick_5">
     <g id="line2d_9">
      <path d="M 280.025446 277.8165 
L 280.025446 22.7925 
" clip-path="url(#paac895592b)" style="fill: none; stroke: #b0b0b0; stroke-opacity: 0.25; stroke-width: 0.8; stroke-linecap: square"/>
     </g>
     <g id="line2d_10">
      <g>
       <use xlink:href="#mb4925c99d7" x="280.025446" y="277.8165" style="stroke: #000000; stroke-width: 0.8"/>
      </g>
     </g>
     <g id="text_5">
      <!-- 0.8 -->
      <g transform="translate(272.957478 292.81025) scale(0.1 -0.1)">
       <defs>
        <path id="MicrosoftYaHei-38" d="M 306 1350 
Q 306 1769 556 2122 
Q 806 2475 1200 2625 
Q 884 2803 700 3081 
Q 516 3359 516 3684 
Q 516 4028 692 4312 
Q 869 4597 1183 4759 
Q 1497 4922 1875 4922 
Q 2256 4922 2572 4761 
Q 2888 4600 3063 4315 
Q 3238 4031 3238 3684 
Q 3238 3366 3058 3086 
Q 2878 2806 2559 2625 
Q 2953 2472 3200 2119 
Q 3447 1766 3447 1350 
Q 3447 938 3250 611 
Q 3053 284 2690 103 
Q 2328 -78 1875 -78 
Q 1425 -78 1065 103 
Q 706 284 506 612 
Q 306 941 306 1350 
z
M 906 1378 
Q 906 947 1172 687 
Q 1438 428 1878 428 
Q 2309 428 2582 692 
Q 2856 956 2856 1378 
Q 2856 1778 2579 2051 
Q 2303 2325 1878 2325 
Q 1456 2325 1181 2058 
Q 906 1791 906 1378 
z
M 1081 3634 
Q 1081 3309 1312 3076 
Q 1544 2844 1878 2844 
Q 2206 2844 2445 3078 
Q 2684 3313 2684 3634 
Q 2684 3963 2454 4191 
Q 2225 4419 1878 4419 
Q 1534 4419 1307 4195 
Q 1081 3972 1081 3634 
z
" transform="scale(0.015625)"/>
       </defs>
       <use xlink:href="#MicrosoftYaHei-30"/>
       <use xlink:href="#MicrosoftYaHei-2e" transform="translate(58.642578 0)"/>
       <use xlink:href="#MicrosoftYaHei-38" transform="translate(82.714844 0)"/>
      </g>
     </g>
    </g>
    <g id="xtick_6">
     <g id="line2d_11">
      <path d="M 333.1894 277.8165 
L 333.1894 22.7925 
" clip-path="url(#paac895592b)" style="fill: none; stroke: #b0b0b0; stroke-opacity: 0.25; stroke-width: 0.8; stroke-linecap: square"/>
     </g>
     <g id="line2d_12">
      <g>
       <use xlink:href="#mb4925c99d7" x="333.1894" y="277.8165" style="stroke: #000000; stroke-width: 0.8"/>
      </g>
     </g>
     <g id="text_6">
      <!-- 1.0 -->
      <g transform="translate(326.121432 292.81025) scale(0.1 -0.1)">
       <defs>
        <path id="MicrosoftYaHei-31" d="M 1781 0 
L 1781 4141 
Q 1638 3997 1295 3819 
Q 953 3641 663 3569 
L 663 4169 
Q 1047 4275 1484 4508 
Q 1922 4741 2156 4947 
L 2388 4947 
L 2388 0 
L 1781 0 
z
" transform="scale(0.015625)"/>
       </defs>
       <use xlink:href="#MicrosoftYaHei-31"/>
       <use xlink:href="#MicrosoftYaHei-2e" transform="translate(58.642578 0)"/>
       <use xlink:href="#MicrosoftYaHei-30" transform="translate(82.714844 0)"/>
      </g>
     </g>
    </g>
    <g id="xtick_7">
     <g id="line2d_13">
      <path d="M 386.353354 277.8165 
L 386.353354 22.7925 
" clip-path="url(#paac895592b)" style="fill: none; stroke: #b0b0b0; stroke-opacity: 0.25; stroke-width: 0.8; stroke-linecap: square"/>
     </g>
     <g id="line2d_14">
      <g>
       <use xlink:href="#mb4925c99d7" x="386.353354" y="277.8165" style="stroke: #000000; stroke-width: 0.8"/>
      </g>
     </g>
     <g id="text_7">
      <!-- 1.2 -->
      <g transform="translate(379.285386 292.81025) scale(0.1 -0.1)">
       <use xlink:href="#MicrosoftYaHei-31"/>
       <use xlink:href="#MicrosoftYaHei-2e" transform="translate(58.642578 0)"/>
       <use xlink:href="#MicrosoftYaHei-32" transform="translate(82.714844 0)"/>
      </g>
     </g>
    </g>
    <g id="xtick_8">
     <g id="line2d_15">
      <path d="M 439.517308 277.8165 
L 439.517308 22.7925 
" clip-path="url(#paac895592b)" style="fill: none; stroke: #b0b0b0; stroke-opacity: 0.25; stroke-width: 0.8; stroke-linecap: square"/>
     </g>
     <g id="line2d_16">
      <g>
       <use xlink:href="#mb4925c99d7" x="439.517308" y="277.8165" style="stroke: #000000; stroke-width: 0.8"/>
      </g>
     </g>
     <g id="text_8">
      <!-- 1.4 -->
      <g transform="translate(432.44934 292.81025) scale(0.1 -0.1)">
       <use xlink:href="#MicrosoftYaHei-31"/>
       <use xlink:href="#MicrosoftYaHei-2e" transform="translate(58.642578 0)"/>
       <use xlink:href="#MicrosoftYaHei-34" transform="translate(82.714844 0)"/>
      </g>
     </g>
    </g>
    <g id="text_9">
     <!-- 物理距离 r (cm) -->
     <g transform="translate(214.58625 307.289937) scale(0.1 -0.1)">
      <defs>
       <path id="MicrosoftYaHei-7269" d="M 2131 2866 
Q 2750 3816 3263 5341 
L 3719 5203 
Q 3541 4706 3363 4278 
L 6075 4278 
Q 5950 1759 5869 422 
Q 5800 -622 4869 -622 
Q 4519 -622 4044 -603 
Q 4013 -372 3956 -72 
Q 4500 -134 4819 -134 
Q 5325 -134 5375 441 
Q 5488 1759 5575 3834 
L 5097 3834 
Q 4934 2241 4569 1322 
Q 4069 134 2869 -716 
Q 2731 -522 2550 -334 
Q 3719 491 4169 1559 
Q 4531 2438 4634 3834 
L 4078 3834 
Q 3909 2641 3575 1916 
Q 3163 1097 2444 447 
Q 2288 647 2119 816 
Q 2831 1434 3175 2116 
Q 3509 2809 3619 3834 
L 3169 3834 
Q 2850 3125 2531 2628 
Q 2375 2734 2131 2866 
z
M 94 1584 
Q 669 1775 1288 1991 
L 1288 3466 
L 722 3466 
Q 597 2872 419 2378 
Q 219 2522 13 2653 
Q 363 3509 456 4709 
L 906 4634 
Q 863 4244 800 3884 
L 1288 3884 
L 1288 5291 
L 1756 5291 
L 1756 3884 
L 2375 3884 
L 2375 3466 
L 1756 3466 
L 1756 2156 
Q 2063 2269 2381 2384 
Q 2413 2109 2450 1909 
Q 2141 1797 1756 1653 
L 1756 -834 
L 1288 -834 
L 1288 1475 
Q 788 1288 188 1053 
L 94 1584 
z
" transform="scale(0.015625)"/>
       <path id="MicrosoftYaHei-7406" d="M 2031 -166 
L 3988 -166 
L 3988 734 
L 2394 734 
L 2394 1172 
L 3988 1172 
L 3988 1997 
L 2988 1997 
L 2988 1766 
L 2525 1766 
L 2525 4991 
L 5913 4991 
L 5913 1766 
L 5450 1766 
L 5450 1997 
L 4450 1997 
L 4450 1172 
L 6044 1172 
L 6044 734 
L 4450 734 
L 4450 -166 
L 6319 -166 
L 6319 -603 
L 2031 -603 
L 2031 -166 
z
M 44 203 
Q 525 319 975 434 
L 975 2328 
L 194 2328 
L 194 2766 
L 975 2766 
L 975 4328 
L 131 4328 
L 131 4766 
L 2281 4766 
L 2281 4328 
L 1438 4328 
L 1438 2766 
L 2231 2766 
L 2231 2328 
L 1438 2328 
L 1438 559 
Q 1850 675 2238 791 
Q 2269 509 2306 303 
Q 1238 16 213 -303 
L 44 203 
z
M 4450 2422 
L 5450 2422 
L 5450 3291 
L 4450 3291 
L 4450 2422 
z
M 2988 2422 
L 3988 2422 
L 3988 3291 
L 2988 3291 
L 2988 2422 
z
M 5450 4566 
L 4450 4566 
L 4450 3703 
L 5450 3703 
L 5450 4566 
z
M 2988 3703 
L 3988 3703 
L 3988 4566 
L 2988 4566 
L 2988 3703 
z
" transform="scale(0.015625)"/>
       <path id="MicrosoftYaHei-8ddd" d="M 2988 4953 
L 6225 4953 
L 6225 4503 
L 3463 4503 
L 3463 3328 
L 5913 3328 
L 5913 991 
L 5450 991 
L 5450 1228 
L 3463 1228 
L 3463 -128 
L 6300 -128 
L 6300 -578 
L 2988 -578 
L 2988 4953 
z
M 69 -34 
L 425 22 
L 425 2478 
L 831 2478 
L 831 91 
Q 1134 144 1438 203 
L 1438 3122 
L 938 3122 
L 938 2916 
L 525 2916 
L 525 4984 
L 2444 4984 
L 2444 3122 
L 1856 3122 
L 1856 2022 
L 2588 2022 
L 2588 1628 
L 1856 1628 
L 1856 284 
Q 2241 363 2631 447 
Q 2638 178 2656 -9 
Q 1219 -272 219 -516 
L 69 -34 
z
M 5450 2891 
L 3463 2891 
L 3463 1666 
L 5450 1666 
L 5450 2891 
z
M 2025 3484 
L 2025 4622 
L 938 4622 
L 938 3484 
L 2025 3484 
z
" transform="scale(0.015625)"/>
       <path id="MicrosoftYaHei-79bb" d="M 2381 459 
Q 3106 484 3878 519 
Q 3716 700 3550 878 
L 3863 1122 
Q 4350 634 4781 147 
L 4450 -141 
Q 4331 0 4213 141 
Q 3416 103 2450 41 
Q 2175 22 1863 -28 
L 1688 416 
Q 1950 578 2131 822 
Q 2278 1025 2425 1278 
L 1056 1278 
L 1056 -822 
L 588 -822 
L 588 1691 
L 2650 1691 
Q 2784 1950 2916 2253 
L 825 2253 
L 825 4066 
L 1281 4066 
L 1281 2653 
L 5113 2653 
L 5113 4072 
L 5569 4072 
L 5569 2028 
L 5113 2028 
L 5113 2253 
L 3472 2253 
Q 3322 1963 3169 1691 
L 5800 1691 
L 5800 -122 
Q 5800 -791 5175 -791 
Q 4875 -791 4519 -778 
Q 4494 -559 4431 -297 
Q 4800 -334 5063 -334 
Q 5331 -334 5331 -53 
L 5331 1278 
L 2928 1278 
Q 2659 838 2381 459 
z
M 200 4734 
L 2919 4734 
Q 2788 4969 2669 5153 
L 3150 5372 
Q 3309 5141 3541 4734 
L 6200 4734 
L 6200 4309 
L 200 4309 
L 200 4734 
z
M 1613 3884 
L 1781 4216 
Q 2500 3984 3294 3700 
Q 3934 3956 4500 4247 
L 4688 3928 
Q 4269 3709 3816 3513 
Q 4281 3341 4775 3153 
L 4606 2797 
Q 3938 3072 3325 3303 
Q 2569 3000 1731 2747 
Q 1619 2947 1506 3103 
Q 2169 3288 2772 3503 
Q 2159 3719 1613 3884 
z
" transform="scale(0.015625)"/>
       <path id="MicrosoftYaHei-20" transform="scale(0.015625)"/>
       <path id="MicrosoftYaHei-72" d="M 2400 2850 
Q 2247 2959 1978 2959 
Q 1622 2959 1390 2626 
Q 1159 2294 1159 1750 
L 1159 0 
L 547 0 
L 547 3456 
L 1159 3456 
L 1159 2753 
L 1172 2753 
Q 1434 3516 2078 3516 
Q 2288 3516 2400 3469 
L 2400 2850 
z
" transform="scale(0.015625)"/>
       <path id="MicrosoftYaHei-28" d="M 1531 -1100 
Q 478 100 478 1847 
Q 478 3594 1531 4841 
L 2072 4841 
Q 1016 3544 1016 1853 
Q 1016 166 2066 -1100 
L 1531 -1100 
z
" transform="scale(0.015625)"/>
       <path id="MicrosoftYaHei-63" d="M 2934 156 
Q 2538 -81 1978 -81 
Q 1228 -81 772 400 
Q 316 881 316 1647 
Q 316 2497 808 3017 
Q 1300 3538 2125 3538 
Q 2600 3538 2938 3369 
L 2938 2763 
Q 2572 3031 2125 3031 
Q 1600 3031 1270 2667 
Q 941 2303 941 1697 
Q 941 1100 1252 762 
Q 1563 425 2091 425 
Q 2538 425 2934 719 
L 2934 156 
z
" transform="scale(0.015625)"/>
       <path id="MicrosoftYaHei-6d" d="M 5522 0 
L 4909 0 
L 4909 1984 
Q 4909 2547 4734 2789 
Q 4559 3031 4159 3031 
Q 3822 3031 3581 2715 
Q 3341 2400 3341 1969 
L 3341 0 
L 2728 0 
L 2728 2047 
Q 2728 3031 1969 3031 
Q 1619 3031 1389 2731 
Q 1159 2431 1159 1966 
L 1159 0 
L 547 0 
L 547 3456 
L 1159 3456 
L 1159 2909 
L 1172 2909 
Q 1541 3538 2250 3538 
Q 2597 3538 2862 3347 
Q 3128 3156 3231 2831 
Q 3616 3538 4381 3538 
Q 5522 3538 5522 2131 
L 5522 0 
z
" transform="scale(0.015625)"/>
       <path id="MicrosoftYaHei-29" d="M 78 -1100 
Q 1131 163 1131 1853 
Q 1131 3547 72 4841 
L 616 4841 
Q 1672 3603 1672 1847 
Q 1672 91 616 -1100 
L 78 -1100 
z
" transform="scale(0.015625)"/>
      </defs>
      <use xlink:href="#MicrosoftYaHei-7269"/>
      <use xlink:href="#MicrosoftYaHei-7406" transform="translate(100 0)"/>
      <use xlink:href="#MicrosoftYaHei-8ddd" transform="translate(200 0)"/>
      <use xlink:href="#MicrosoftYaHei-79bb" transform="translate(300 0)"/>
      <use xlink:href="#MicrosoftYaHei-20" transform="translate(400 0)"/>
      <use xlink:href="#MicrosoftYaHei-72" transform="translate(429.589844 0)"/>
      <use xlink:href="#MicrosoftYaHei-20" transform="translate(467.773438 0)"/>
      <use xlink:href="#MicrosoftYaHei-28" transform="translate(497.363281 0)"/>
      <use xlink:href="#MicrosoftYaHei-63" transform="translate(530.761719 0)"/>
      <use xlink:href="#MicrosoftYaHei-6d" transform="translate(580.908203 0)"/>
      <use xlink:href="#MicrosoftYaHei-29" transform="translate(674.609375 0)"/>
     </g>
    </g>
   </g>
   <g id="matplotlib.axis_2">
    <g id="ytick_1">
     <g id="line2d_17">
      <path d="M 49.107813 272.648368 
L 450.867813 272.648368 
" clip-path="url(#paac895592b)" style="fill: none; stroke: #b0b0b0; stroke-opacity: 0.25; stroke-width: 0.8; stroke-linecap: square"/>
     </g>
     <g id="line2d_18">
      <defs>
       <path id="m2149c19081" d="M 0 0 
L -3.5 0 
" style="stroke: #000000; stroke-width: 0.8"/>
      </defs>
      <g>
       <use xlink:href="#m2149c19081" x="49.107813" y="272.648368" style="stroke: #000000; stroke-width: 0.8"/>
      </g>
     </g>
     <g id="text_10">
      <!-- 0.00 -->
      <g transform="translate(22.107813 276.645243) scale(0.1 -0.1)">
       <use xlink:href="#MicrosoftYaHei-30"/>
       <use xlink:href="#MicrosoftYaHei-2e" transform="translate(58.642578 0)"/>
       <use xlink:href="#MicrosoftYaHei-30" transform="translate(82.714844 0)"/>
       <use xlink:href="#MicrosoftYaHei-30" transform="translate(141.357422 0)"/>
      </g>
     </g>
    </g>
    <g id="ytick_2">
     <g id="line2d_19">
      <path d="M 49.107813 242.131296 
L 450.867813 242.131296 
" clip-path="url(#paac895592b)" style="fill: none; stroke: #b0b0b0; stroke-opacity: 0.25; stroke-width: 0.8; stroke-linecap: square"/>
     </g>
     <g id="line2d_20">
      <g>
       <use xlink:href="#m2149c19081" x="49.107813" y="242.131296" style="stroke: #000000; stroke-width: 0.8"/>
      </g>
     </g>
     <g id="text_11">
      <!-- 0.25 -->
      <g transform="translate(22.107813 246.128171) scale(0.1 -0.1)">
       <defs>
        <path id="MicrosoftYaHei-35" d="M 3294 1494 
Q 3294 784 2823 350 
Q 2353 -84 1559 -84 
Q 878 -84 544 119 
L 544 744 
Q 1034 425 1544 425 
Q 2050 425 2361 704 
Q 2672 984 2672 1447 
Q 2672 1909 2348 2167 
Q 2025 2425 1434 2425 
Q 978 2425 613 2384 
L 791 4841 
L 3053 4841 
L 3053 4303 
L 1306 4303 
L 1206 2931 
L 1647 2950 
Q 2416 2950 2855 2567 
Q 3294 2184 3294 1494 
z
" transform="scale(0.015625)"/>
       </defs>
       <use xlink:href="#MicrosoftYaHei-30"/>
       <use xlink:href="#MicrosoftYaHei-2e" transform="translate(58.642578 0)"/>
       <use xlink:href="#MicrosoftYaHei-32" transform="translate(82.714844 0)"/>
       <use xlink:href="#MicrosoftYaHei-35" transform="translate(141.357422 0)"/>
      </g>
     </g>
    </g>
    <g id="ytick_3">
     <g id="line2d_21">
      <path d="M 49.107813 211.614224 
L 450.867813 211.614224 
" clip-path="url(#paac895592b)" style="fill: none; stroke: #b0b0b0; stroke-opacity: 0.25; stroke-width: 0.8; stroke-linecap: square"/>
     </g>
     <g id="line2d_22">
      <g>
       <use xlink:href="#m2149c19081" x="49.107813" y="211.614224" style="stroke: #000000; stroke-width: 0.8"/>
      </g>
     </g>
     <g id="text_12">
      <!-- 0.50 -->
      <g transform="translate(22.107813 215.611099) scale(0.1 -0.1)">
       <use xlink:href="#MicrosoftYaHei-30"/>
       <use xlink:href="#MicrosoftYaHei-2e" transform="translate(58.642578 0)"/>
       <use xlink:href="#MicrosoftYaHei-35" transform="translate(82.714844 0)"/>
       <use xlink:href="#MicrosoftYaHei-30" transform="translate(141.357422 0)"/>
      </g>
     </g>
    </g>
    <g id="ytick_4">
     <g id="line2d_23">
      <path d="M 49.107813 181.097153 
L 450.867813 181.097153 
" clip-path="url(#paac895592b)" style="fill: none; stroke: #b0b0b0; stroke-opacity: 0.25; stroke-width: 0.8; stroke-linecap: square"/>
     </g>
     <g id="line2d_24">
      <g>
       <use xlink:href="#m2149c19081" x="49.107813" y="181.097153" style="stroke: #000000; stroke-width: 0.8"/>
      </g>
     </g>
     <g id="text_13">
      <!-- 0.75 -->
      <g transform="translate(22.107813 185.094028) scale(0.1 -0.1)">
       <defs>
        <path id="MicrosoftYaHei-37" d="M 3422 4463 
Q 2659 3131 2223 1998 
Q 1788 866 1684 0 
L 1047 0 
Q 1163 853 1594 1947 
Q 2025 3041 2747 4300 
L 347 4300 
L 347 4841 
L 3422 4841 
L 3422 4463 
z
" transform="scale(0.015625)"/>
       </defs>
       <use xlink:href="#MicrosoftYaHei-30"/>
       <use xlink:href="#MicrosoftYaHei-2e" transform="translate(58.642578 0)"/>
       <use xlink:href="#MicrosoftYaHei-37" transform="translate(82.714844 0)"/>
       <use xlink:href="#MicrosoftYaHei-35" transform="translate(141.357422 0)"/>
      </g>
     </g>
    </g>
    <g id="ytick_5">
     <g id="line2d_25">
      <path d="M 49.107813 150.580081 
L 450.867813 150.580081 
" clip-path="url(#paac895592b)" style="fill: none; stroke: #b0b0b0; stroke-opacity: 0.25; stroke-width: 0.8; stroke-linecap: square"/>
     </g>
     <g id="line2d_26">
      <g>
       <use xlink:href="#m2149c19081" x="49.107813" y="150.580081" style="stroke: #000000; stroke-width: 0.8"/>
      </g>
     </g>
     <g id="text_14">
      <!-- 1.00 -->
      <g transform="translate(22.107813 154.576956) scale(0.1 -0.1)">
       <use xlink:href="#MicrosoftYaHei-31"/>
       <use xlink:href="#MicrosoftYaHei-2e" transform="translate(58.642578 0)"/>
       <use xlink:href="#MicrosoftYaHei-30" transform="translate(82.714844 0)"/>
       <use xlink:href="#MicrosoftYaHei-30" transform="translate(141.357422 0)"/>
      </g>
     </g>
    </g>
    <g id="ytick_6">
     <g id="line2d_27">
      <path d="M 49.107813 120.063009 
L 450.867813 120.063009 
" clip-path="url(#paac895592b)" style="fill: none; stroke: #b0b0b0; stroke-opacity: 0.25; stroke-width: 0.8; stroke-linecap: square"/>
     </g>
     <g id="line2d_28">
      <g>
       <use xlink:href="#m2149c19081" x="49.107813" y="120.063009" style="stroke: #000000; stroke-width: 0.8"/>
      </g>
     </g>
     <g id="text_15">
      <!-- 1.25 -->
      <g transform="translate(22.107813 124.059884) scale(0.1 -0.1)">
       <use xlink:href="#MicrosoftYaHei-31"/>
       <use xlink:href="#MicrosoftYaHei-2e" transform="translate(58.642578 0)"/>
       <use xlink:href="#MicrosoftYaHei-32" transform="translate(82.714844 0)"/>
       <use xlink:href="#MicrosoftYaHei-35" transform="translate(141.357422 0)"/>
      </g>
     </g>
    </g>
    <g id="ytick_7">
     <g id="line2d_29">
      <path d="M 49.107813 89.545937 
L 450.867813 89.545937 
" clip-path="url(#paac895592b)" style="fill: none; stroke: #b0b0b0; stroke-opacity: 0.25; stroke-width: 0.8; stroke-linecap: square"/>
     </g>
     <g id="line2d_30">
      <g>
       <use xlink:href="#m2149c19081" x="49.107813" y="89.545937" style="stroke: #000000; stroke-width: 0.8"/>
      </g>
     </g>
     <g id="text_16">
      <!-- 1.50 -->
      <g transform="translate(22.107813 93.542812) scale(0.1 -0.1)">
       <use xlink:href="#MicrosoftYaHei-31"/>
       <use xlink:href="#MicrosoftYaHei-2e" transform="translate(58.642578 0)"/>
       <use xlink:href="#MicrosoftYaHei-35" transform="translate(82.714844 0)"/>
       <use xlink:href="#MicrosoftYaHei-30" transform="translate(141.357422 0)"/>
      </g>
     </g>
    </g>
    <g id="ytick_8">
     <g id="line2d_31">
      <path d="M 49.107813 59.028865 
L 450.867813 59.028865 
" clip-path="url(#paac895592b)" style="fill: none; stroke: #b0b0b0; stroke-opacity: 0.25; stroke-width: 0.8; stroke-linecap: square"/>
     </g>
     <g id="line2d_32">
      <g>
       <use xlink:href="#m2149c19081" x="49.107813" y="59.028865" style="stroke: #000000; stroke-width: 0.8"/>
      </g>
     </g>
     <g id="text_17">
      <!-- 1.75 -->
      <g transform="translate(22.107813 63.02574) scale(0.1 -0.1)">
       <use xlink:href="#MicrosoftYaHei-31"/>
       <use xlink:href="#MicrosoftYaHei-2e" transform="translate(58.642578 0)"/>
       <use xlink:href="#MicrosoftYaHei-37" transform="translate(82.714844 0)"/>
       <use xlink:href="#MicrosoftYaHei-35" transform="translate(141.357422 0)"/>
      </g>
     </g>
    </g>
    <g id="ytick_9">
     <g id="line2d_33">
      <path d="M 49.107813 28.511793 
L 450.867813 28.511793 
" clip-path="url(#paac895592b)" style="fill: none; stroke: #b0b0b0; stroke-opacity: 0.25; stroke-width: 0.8; stroke-linecap: square"/>
     </g>
     <g id="line2d_34">
      <g>
       <use xlink:href="#m2149c19081" x="49.107813" y="28.511793" style="stroke: #000000; stroke-width: 0.8"/>
      </g>
     </g>
     <g id="text_18">
      <!-- 2.00 -->
      <g transform="translate(22.107813 32.508668) scale(0.1 -0.1)">
       <use xlink:href="#MicrosoftYaHei-32"/>
       <use xlink:href="#MicrosoftYaHei-2e" transform="translate(58.642578 0)"/>
       <use xlink:href="#MicrosoftYaHei-30" transform="translate(82.714844 0)"/>
       <use xlink:href="#MicrosoftYaHei-30" transform="translate(141.357422 0)"/>
      </g>
     </g>
    </g>
    <g id="text_19">
     <!-- 水分含量 C (kg/kg) -->
     <g transform="translate(15.564063 193.713094) rotate(-90) scale(0.1 -0.1)">
      <defs>
       <path id="MicrosoftYaHei-6c34" d="M 2925 5297 
L 3431 5297 
L 3431 4294 
Q 3700 3563 4047 2934 
Q 4738 3509 5425 4309 
L 5844 3934 
Q 5113 3169 4300 2506 
Q 5125 1200 6319 384 
Q 6056 122 5894 -84 
Q 4250 1209 3431 3119 
L 3431 197 
Q 3431 -734 2538 -734 
Q 2263 -734 1725 -728 
Q 1694 -497 1625 -166 
Q 2125 -216 2438 -216 
Q 2925 -216 2925 253 
L 2925 5297 
z
M 256 3297 
L 256 3772 
L 2413 3772 
L 2413 3316 
Q 1881 1266 475 -197 
Q 263 47 94 184 
Q 1506 1672 1913 3297 
L 256 3297 
z
" transform="scale(0.015625)"/>
       <path id="MicrosoftYaHei-5206" d="M 900 2559 
L 5056 2559 
Q 5025 1497 4963 484 
Q 4888 -684 3856 -678 
Q 3350 -684 2788 -647 
Q 2750 -384 2700 -116 
Q 3181 -184 3775 -191 
Q 4400 -203 4463 541 
Q 4513 1216 4538 2097 
L 2616 2097 
Q 2541 1053 2181 416 
Q 1706 -422 588 -878 
Q 425 -666 231 -459 
Q 1269 -72 1725 666 
Q 2053 1225 2103 2097 
L 900 2097 
L 900 2559 
z
M 3488 5159 
L 3938 5353 
Q 4625 3678 6350 2847 
Q 6069 2553 5944 2372 
Q 4225 3366 3488 5159 
z
M 50 2766 
Q 1338 3678 2250 5253 
L 2694 5009 
Q 1744 3347 413 2341 
Q 281 2534 50 2766 
z
" transform="scale(0.015625)"/>
       <path id="MicrosoftYaHei-542b" d="M 975 1572 
L 5438 1572 
L 5438 -822 
L 4950 -822 
L 4950 -478 
L 1463 -478 
L 1463 -834 
L 975 -834 
L 975 1572 
z
M 1188 2622 
L 1188 3053 
L 4950 3053 
L 4950 2622 
Q 4550 2147 3981 1628 
Q 3800 1784 3594 1922 
Q 3981 2228 4350 2622 
L 1188 2622 
z
M 2631 3872 
L 2975 4134 
Q 3288 3809 3619 3422 
L 3244 3128 
Q 2975 3484 2631 3872 
z
M 3663 5291 
L 3519 5134 
Q 4525 3909 6313 3259 
Q 6100 2991 5988 2778 
Q 4094 3622 3206 4834 
Q 2050 3516 369 2672 
Q 244 2903 81 3109 
Q 1838 3934 2981 5291 
L 3663 5291 
z
M 4950 -34 
L 4950 1128 
L 1463 1128 
L 1463 -34 
L 4950 -34 
z
" transform="scale(0.015625)"/>
       <path id="MicrosoftYaHei-91cf" d="M 113 -278 
L 2981 -278 
L 2981 78 
L 475 78 
L 475 403 
L 2981 403 
L 2981 759 
L 1494 759 
L 1494 597 
L 1069 597 
L 1069 2516 
L 5350 2516 
L 5350 597 
L 4925 597 
L 4925 759 
L 3419 759 
L 3419 403 
L 5931 403 
L 5931 78 
L 3419 78 
L 3419 -278 
L 6288 -278 
L 6288 -616 
L 113 -616 
L 113 -278 
z
M 1119 5072 
L 5306 5072 
L 5306 3284 
L 4881 3284 
L 4881 3453 
L 1544 3453 
L 1544 3284 
L 1119 3284 
L 1119 5072 
z
M 163 3153 
L 6263 3153 
L 6263 2816 
L 163 2816 
L 163 3153 
z
M 1544 3778 
L 4881 3778 
L 4881 4116 
L 1544 4116 
L 1544 3778 
z
M 4881 4747 
L 1544 4747 
L 1544 4416 
L 4881 4416 
L 4881 4747 
z
M 3419 1084 
L 4925 1084 
L 4925 1491 
L 3419 1491 
L 3419 1084 
z
M 1494 1084 
L 2981 1084 
L 2981 1491 
L 1494 1491 
L 1494 1084 
z
M 4925 2191 
L 3419 2191 
L 3419 1791 
L 4925 1791 
L 4925 2191 
z
M 1494 1791 
L 2981 1791 
L 2981 2191 
L 1494 2191 
L 1494 1791 
z
" transform="scale(0.015625)"/>
       <path id="MicrosoftYaHei-43" d="M 3938 200 
Q 3403 -81 2597 -81 
Q 1556 -81 934 580 
Q 313 1241 313 2328 
Q 313 3497 1013 4209 
Q 1713 4922 2791 4922 
Q 3484 4922 3938 4725 
L 3938 4072 
Q 3419 4359 2797 4359 
Q 1988 4359 1478 3820 
Q 969 3281 969 2366 
Q 969 1497 1444 986 
Q 1919 475 2688 475 
Q 3406 475 3938 800 
L 3938 200 
z
" transform="scale(0.015625)"/>
       <path id="MicrosoftYaHei-6b" d="M 3484 0 
L 2650 0 
L 1172 1666 
L 1159 1666 
L 1159 0 
L 547 0 
L 547 5116 
L 1159 5116 
L 1159 1872 
L 1172 1872 
L 2575 3456 
L 3363 3456 
L 1800 1794 
L 3484 0 
z
" transform="scale(0.015625)"/>
       <path id="MicrosoftYaHei-67" d="M 3547 291 
Q 3547 -1628 1684 -1628 
Q 1041 -1628 566 -1388 
L 566 -797 
Q 1144 -1119 1675 -1119 
Q 2934 -1119 2934 206 
L 2934 572 
L 2922 572 
Q 2528 -81 1747 -81 
Q 1097 -81 706 384 
Q 316 850 316 1619 
Q 316 2503 747 3020 
Q 1178 3538 1897 3538 
Q 2588 3538 2922 2988 
L 2934 2988 
L 2934 3456 
L 3547 3456 
L 3547 291 
z
M 2934 2056 
Q 2938 2456 2666 2743 
Q 2394 3031 1997 3031 
Q 1497 3031 1219 2664 
Q 941 2297 941 1656 
Q 941 1106 1209 765 
Q 1478 425 1922 425 
Q 2369 425 2653 750 
Q 2938 1075 2934 1575 
L 2934 2056 
z
" transform="scale(0.015625)"/>
       <path id="MicrosoftYaHei-2f" d="M 2791 4841 
L 469 -803 
L -103 -803 
L 2219 4841 
L 2791 4841 
z
" transform="scale(0.015625)"/>
      </defs>
      <use xlink:href="#MicrosoftYaHei-6c34"/>
      <use xlink:href="#MicrosoftYaHei-5206" transform="translate(100 0)"/>
      <use xlink:href="#MicrosoftYaHei-542b" transform="translate(200 0)"/>
      <use xlink:href="#MicrosoftYaHei-91cf" transform="translate(300 0)"/>
      <use xlink:href="#MicrosoftYaHei-20" transform="translate(400 0)"/>
      <use xlink:href="#MicrosoftYaHei-43" transform="translate(429.589844 0)"/>
      <use xlink:href="#MicrosoftYaHei-20" transform="translate(496.484375 0)"/>
      <use xlink:href="#MicrosoftYaHei-28" transform="translate(526.074219 0)"/>
      <use xlink:href="#MicrosoftYaHei-6b" transform="translate(559.472656 0)"/>
      <use xlink:href="#MicrosoftYaHei-67" transform="translate(611.791016 0)"/>
      <use xlink:href="#MicrosoftYaHei-2f" transform="translate(675.755859 0)"/>
      <use xlink:href="#MicrosoftYaHei-6b" transform="translate(718.480469 0)"/>
      <use xlink:href="#MicrosoftYaHei-67" transform="translate(770.798828 0)"/>
      <use xlink:href="#MicrosoftYaHei-29" transform="translate(834.763672 0)"/>
     </g>
    </g>
   </g>
   <g id="line2d_35">
    <path d="M 67.369631 34.3845 
L 71.174176 34.401283 
L 74.978722 34.451635 
L 78.783267 34.535559 
L 82.587813 34.653065 
L 86.392358 34.804163 
L 90.196903 34.988869 
L 94.001449 35.2072 
L 97.805994 35.459177 
L 101.61054 35.744825 
L 105.415085 36.064171 
L 109.219631 36.417245 
L 113.024176 36.804081 
L 116.828722 37.224715 
L 120.633267 37.679186 
L 124.437813 38.167538 
L 128.242358 38.689816 
L 132.046903 39.246066 
L 135.851449 39.836341 
L 139.655994 40.460693 
L 143.46054 41.119179 
L 147.265085 41.811857 
L 151.069631 42.538788 
L 154.874176 43.300035 
L 158.678722 44.095666 
L 162.483267 44.925747 
L 166.287813 45.790349 
L 170.092358 46.689545 
L 173.896903 47.62341 
L 177.701449 48.592021 
L 181.505994 49.595456 
L 185.31054 50.633797 
L 189.115085 51.707127 
L 192.919631 52.81553 
L 196.724176 53.959094 
L 200.528722 55.137907 
L 204.333267 56.352061 
L 208.137813 57.601648 
L 211.942358 58.886763 
L 215.746903 60.207504 
L 219.551449 61.56397 
L 223.355994 62.956262 
L 227.16054 64.384485 
L 230.965085 65.848744 
L 234.769631 67.349149 
L 238.574176 68.885813 
L 242.378722 70.45885 
L 246.183267 72.06838 
L 249.987813 73.714524 
L 253.792358 75.39741 
L 257.596903 77.117168 
L 261.401449 78.873933 
L 265.205994 80.667849 
L 269.01054 82.499061 
L 272.815085 84.367725 
L 276.619631 86.274001 
L 280.424176 88.218059 
L 284.228722 90.200079 
L 288.033267 92.220249 
L 291.837813 94.27877 
L 295.642358 96.375855 
L 299.446903 98.511732 
L 303.251449 100.686644 
L 307.055994 102.900851 
L 310.86054 105.154633 
L 314.665085 107.448295 
L 318.469631 109.782162 
L 322.274176 112.156589 
L 326.078722 114.571964 
L 329.883267 117.028706 
L 333.687813 119.527275 
L 337.492358 122.068177 
L 341.296903 124.651966 
L 345.101449 127.279252 
L 348.905994 129.95071 
L 352.71054 132.66709 
L 356.515085 135.429221 
L 360.319631 138.23803 
L 364.124176 141.094552 
L 367.928722 143.999948 
L 371.733267 146.955522 
L 375.537812 149.962749 
L 379.342358 153.023299 
L 383.146903 156.139075 
L 386.951449 159.312249 
L 390.755994 162.545322 
L 394.56054 165.841178 
L 398.365085 169.203176 
L 402.169631 172.635244 
L 405.974176 176.142018 
L 409.778722 179.729017 
L 413.583267 183.402877 
L 417.387812 187.171669 
L 421.192358 191.045351 
L 424.996903 195.036405 
L 428.801449 199.16078 
L 432.605994 203.439349 
" clip-path="url(#paac895592b)" style="fill: none; stroke: #1f77b4; stroke-width: 1.5; stroke-linecap: square"/>
   </g>
   <g id="line2d_36">
    <path d="M 67.369631 166.005486 
L 70.825288 166.013561 
L 74.280945 166.037787 
L 77.736602 166.078161 
L 81.192259 166.134681 
L 84.647916 166.207342 
L 88.103573 166.296139 
L 91.55923 166.401065 
L 95.014887 166.522111 
L 98.470544 166.65927 
L 101.926201 166.812531 
L 105.381858 166.981882 
L 108.837515 167.167312 
L 112.293172 167.368806 
L 115.748829 167.586351 
L 119.204486 167.819931 
L 122.660143 168.069529 
L 126.1158 168.335128 
L 129.571457 168.61671 
L 133.027114 168.914257 
L 136.482771 169.227748 
L 139.938428 169.557163 
L 143.394085 169.902481 
L 146.849742 170.26368 
L 150.305399 170.64074 
L 153.761056 171.033636 
L 157.216713 171.442347 
L 160.67237 171.86685 
L 164.128027 172.307122 
L 167.583684 172.76314 
L 171.039341 173.234882 
L 174.494998 173.722324 
L 177.950655 174.225444 
L 181.406312 174.744222 
L 184.861969 175.278637 
L 188.317626 175.828667 
L 191.773283 176.394296 
L 195.22894 176.975504 
L 198.684597 177.572275 
L 202.140254 178.184596 
L 205.595911 178.812453 
L 209.051568 179.455837 
L 212.507225 180.114739 
L 215.962882 180.789153 
L 219.418539 181.479079 
L 222.874196 182.184517 
L 226.329853 182.905473 
L 229.78551 183.641956 
L 233.241167 184.39398 
L 236.696824 185.161565 
L 240.152481 185.944735 
L 243.608138 186.743524 
L 247.063795 187.557968 
L 250.519452 188.388115 
L 253.975109 189.234019 
L 257.430766 190.095745 
L 260.886423 190.973366 
L 264.34208 191.86697 
L 267.797737 192.776653 
L 271.253394 193.702529 
L 274.709051 194.644726 
L 278.164708 195.603387 
L 281.620365 196.578677 
L 285.076022 197.570778 
L 288.531679 198.5799 
L 291.987336 199.606274 
L 295.442993 200.650162 
L 298.89865 201.711859 
L 302.354307 202.791695 
L 305.809964 203.890039 
L 309.265621 205.007309 
L 312.721278 206.143972 
L 316.176935 207.300554 
L 319.632592 208.47765 
L 323.088249 209.67593 
L 326.543906 210.896153 
L 329.999563 212.139179 
L 333.45522 213.405989 
L 336.910877 214.697701 
L 340.366534 216.015598 
L 343.822191 217.361157 
L 347.277848 218.736088 
L 350.733505 220.142382 
L 354.189162 221.582375 
L 357.644819 223.058824 
L 361.100476 224.575018 
L 364.556133 226.134917 
L 368.01179 227.743349 
L 371.467447 229.406284 
L 374.923104 231.131227 
L 378.378761 232.927807 
L 381.834418 234.808689 
L 385.290075 236.791049 
L 388.745732 238.899123 
L 392.201389 241.16896 
L 395.657046 243.65826 
L 399.112703 246.470211 
" clip-path="url(#paac895592b)" style="fill: none; stroke: #ff7f0e; stroke-width: 1.5; stroke-linecap: square"/>
   </g>
   <g id="line2d_37">
    <path d="M 67.369631 216.545871 
L 70.731143 216.54948 
L 74.092656 216.560306 
L 77.454168 216.578348 
L 80.815681 216.603608 
L 84.177193 216.636084 
L 87.538706 216.675777 
L 90.900218 216.722687 
L 94.261731 216.776814 
L 97.623243 216.838158 
L 100.984756 216.906719 
L 104.346268 216.982497 
L 107.707781 217.065492 
L 111.069293 217.155704 
L 114.430806 217.253135 
L 117.792318 217.357783 
L 121.153831 217.469651 
L 124.515343 217.588739 
L 127.876856 217.715048 
L 131.238368 217.84858 
L 134.599881 217.989336 
L 137.961393 218.137319 
L 141.322906 218.292531 
L 144.684418 218.454974 
L 148.045931 218.624653 
L 151.407443 218.80157 
L 154.768956 218.985731 
L 158.130468 219.177141 
L 161.491981 219.375806 
L 164.853493 219.581733 
L 168.215006 219.794928 
L 171.576518 220.015401 
L 174.938031 220.243162 
L 178.299543 220.478221 
L 181.661056 220.72059 
L 185.022568 220.970283 
L 188.384081 221.227315 
L 191.745593 221.491702 
L 195.107106 221.763464 
L 198.468618 222.042619 
L 201.830131 222.329192 
L 205.191643 222.623207 
L 208.553156 222.92469 
L 211.914668 223.233673 
L 215.276181 223.550187 
L 218.637693 223.87427 
L 221.999206 224.205961 
L 225.360718 224.545303 
L 228.722231 224.892344 
L 232.083743 225.247136 
L 235.445256 225.609736 
L 238.806768 225.980207 
L 242.168281 226.358617 
L 245.529793 226.74504 
L 248.891306 227.139558 
L 252.252818 227.542259 
L 255.614331 227.953243 
L 258.975843 228.372615 
L 262.337356 228.800492 
L 265.698868 229.237002 
L 269.060381 229.682287 
L 272.421893 230.136499 
L 275.783406 230.599808 
L 279.144918 231.0724 
L 282.506431 231.55448 
L 285.867944 232.046274 
L 289.229456 232.54803 
L 292.590969 233.060024 
L 295.952481 233.582561 
L 299.313994 234.11598 
L 302.675506 234.660657 
L 306.037019 235.217015 
L 309.398531 235.785522 
L 312.760044 236.366709 
L 316.121556 236.961168 
L 319.483069 237.569575 
L 322.844581 238.192691 
L 326.206094 238.831389 
L 329.567606 239.486669 
L 332.929119 240.159685 
L 336.290631 240.851775 
L 339.652144 241.564509 
L 343.013656 242.299738 
L 346.375169 243.059667 
L 349.736681 243.846956 
L 353.098194 244.664853 
L 356.459706 245.517381 
L 359.821219 246.409622 
L 363.182731 247.348131 
L 366.544244 248.341588 
L 369.905756 249.401879 
L 373.267269 250.54599 
L 376.628781 251.799627 
L 379.990294 253.204975 
L 383.351806 254.8405 
L 386.713319 256.889397 
L 390.074831 260.211995 
" clip-path="url(#paac895592b)" style="fill: none; stroke: #2ca02c; stroke-width: 1.5; stroke-linecap: square"/>
   </g>
   <g id="line2d_38">
    <path d="M 67.369631 235.099112 
L 70.703454 235.101128 
L 74.037277 235.107178 
L 77.3711 235.117261 
L 80.704922 235.131378 
L 84.038745 235.149531 
L 87.372568 235.17172 
L 90.706391 235.197948 
L 94.040214 235.228216 
L 97.374037 235.262527 
L 100.70786 235.300883 
L 104.041683 235.343287 
L 107.375506 235.389743 
L 110.709329 235.440255 
L 114.043152 235.494826 
L 117.376975 235.553462 
L 120.710798 235.616167 
L 124.044621 235.682946 
L 127.378444 235.753806 
L 130.712267 235.828753 
L 134.04609 235.907794 
L 137.379913 235.990936 
L 140.713735 236.078188 
L 144.047558 236.169558 
L 147.381381 236.265055 
L 150.715204 236.364689 
L 154.049027 236.468472 
L 157.38285 236.576415 
L 160.716673 236.688529 
L 164.050496 236.804829 
L 167.384319 236.925328 
L 170.718142 237.050042 
L 174.051965 237.178986 
L 177.385788 237.312179 
L 180.719611 237.449638 
L 184.053434 237.591384 
L 187.387257 237.737438 
L 190.72108 237.887822 
L 194.054903 238.04256 
L 197.388726 238.201679 
L 200.722549 238.365207 
L 204.056371 238.533172 
L 207.390194 238.705608 
L 210.724017 238.882547 
L 214.05784 239.064026 
L 217.391663 239.250084 
L 220.725486 239.440763 
L 224.059309 239.636108 
L 227.393132 239.836166 
L 230.726955 240.040989 
L 234.060778 240.250633 
L 237.394601 240.465157 
L 240.728424 240.684624 
L 244.062247 240.909104 
L 247.39607 241.13867 
L 250.729893 241.373402 
L 254.063716 241.613386 
L 257.397539 241.858715 
L 260.731362 242.109489 
L 264.065184 242.365818 
L 267.399007 242.627818 
L 270.73283 242.895618 
L 274.066653 243.169356 
L 277.400476 243.449184 
L 280.734299 243.735267 
L 284.068122 244.027784 
L 287.401945 244.326934 
L 290.735768 244.632933 
L 294.069591 244.946018 
L 297.403414 245.266453 
L 300.737237 245.594527 
L 304.07106 245.930564 
L 307.404883 246.274922 
L 310.738706 246.628 
L 314.072529 246.990249 
L 317.406352 247.362173 
L 320.740175 247.744346 
L 324.073997 248.137419 
L 327.40782 248.542137 
L 330.741643 248.959359 
L 334.075466 249.39008 
L 337.409289 249.835464 
L 340.743112 250.296885 
L 344.076935 250.775982 
L 347.410758 251.274728 
L 350.744581 251.79554 
L 354.078404 252.341417 
L 357.412227 252.916153 
L 360.74605 253.524658 
L 364.079873 254.173455 
L 367.413696 254.87152 
L 370.747519 255.631741 
L 374.081342 256.473758 
L 377.415165 257.430097 
L 380.748988 258.562091 
L 384.082811 260.016755 
L 387.416633 263.973937 
" clip-path="url(#paac895592b)" style="fill: none; stroke: #d62728; stroke-width: 1.5; stroke-linecap: square"/>
   </g>
   <g id="line2d_39">
    <path d="M 67.369631 253.06352 
L 70.692378 253.064229 
L 74.015125 253.066355 
L 77.337872 253.0699 
L 80.660619 253.074864 
L 83.983366 253.081248 
L 87.306113 253.089053 
L 90.628861 253.098282 
L 93.951608 253.108937 
L 97.274355 253.121019 
L 100.597102 253.134532 
L 103.919849 253.149479 
L 107.242596 253.165864 
L 110.565343 253.183689 
L 113.88809 253.20296 
L 117.210838 253.223681 
L 120.533585 253.245858 
L 123.856332 253.269494 
L 127.179079 253.294597 
L 130.501826 253.321173 
L 133.824573 253.349227 
L 137.14732 253.378768 
L 140.470067 253.409803 
L 143.792814 253.442339 
L 147.115562 253.476387 
L 150.438309 253.511954 
L 153.761056 253.54905 
L 157.083803 253.587686 
L 160.40655 253.627872 
L 163.729297 253.669621 
L 167.052044 253.712943 
L 170.374791 253.757853 
L 173.697539 253.804363 
L 177.020286 253.852487 
L 180.343033 253.902242 
L 183.66578 253.953643 
L 186.988527 254.006706 
L 190.311274 254.061451 
L 193.634021 254.117894 
L 196.956768 254.176058 
L 200.279516 254.235961 
L 203.602263 254.297628 
L 206.92501 254.361081 
L 210.247757 254.426345 
L 213.570504 254.493447 
L 216.893251 254.562414 
L 220.215998 254.633276 
L 223.538745 254.706065 
L 226.861493 254.780814 
L 230.18424 254.857558 
L 233.506987 254.936334 
L 236.829734 255.017184 
L 240.152481 255.100149 
L 243.475228 255.185275 
L 246.797975 255.27261 
L 250.120722 255.362207 
L 253.44347 255.45412 
L 256.766217 255.548409 
L 260.088964 255.645137 
L 263.411711 255.744373 
L 266.734458 255.846191 
L 270.057205 255.950669 
L 273.379952 256.057893 
L 276.702699 256.167956 
L 280.025446 256.280958 
L 283.348194 256.397008 
L 286.670941 256.516225 
L 289.993688 256.638737 
L 293.316435 256.764687 
L 296.639182 256.89423 
L 299.961929 257.027537 
L 303.284676 257.164797 
L 306.607423 257.306219 
L 309.930171 257.452037 
L 313.252918 257.60251 
L 316.575665 257.757931 
L 319.898412 257.918628 
L 323.221159 258.084976 
L 326.543906 258.257401 
L 329.866653 258.436392 
L 333.1894 258.622515 
L 336.512148 258.816432 
L 339.834895 259.018918 
L 343.157642 259.2309 
L 346.480389 259.453489 
L 349.803136 259.688046 
L 353.125883 259.936254 
L 356.44863 260.200242 
L 359.771377 260.48276 
L 363.094125 260.78746 
L 366.416872 261.119358 
L 369.739619 261.485657 
L 373.062366 261.897308 
L 376.385113 262.372398 
L 379.70786 262.944798 
L 383.030607 263.69413 
L 386.353354 266.140581 
" clip-path="url(#paac895592b)" style="fill: none; stroke: #9467bd; stroke-width: 1.5; stroke-linecap: square"/>
   </g>
   <g id="line2d_40">
    <path d="M 67.369631 254.338125 
L 70.692378 254.338759 
L 74.015125 254.34066 
L 77.337872 254.34383 
L 80.660619 254.348268 
L 83.983366 254.353977 
L 87.306113 254.360957 
L 90.628861 254.36921 
L 93.951608 254.378738 
L 97.274355 254.389543 
L 100.597102 254.401629 
L 103.919849 254.414998 
L 107.242596 254.429653 
L 110.565343 254.445599 
L 113.88809 254.462839 
L 117.210838 254.481377 
L 120.533585 254.501219 
L 123.856332 254.52237 
L 127.179079 254.544834 
L 130.501826 254.568619 
L 133.824573 254.59373 
L 137.14732 254.620175 
L 140.470067 254.64796 
L 143.792814 254.677093 
L 147.115562 254.707583 
L 150.438309 254.739438 
L 153.761056 254.772668 
L 157.083803 254.807281 
L 160.40655 254.84329 
L 163.729297 254.880703 
L 167.052044 254.919534 
L 170.374791 254.959795 
L 173.697539 255.001497 
L 177.020286 255.044655 
L 180.343033 255.089284 
L 183.66578 255.135398 
L 186.988527 255.183014 
L 190.311274 255.232149 
L 193.634021 255.28282 
L 196.956768 255.335046 
L 200.279516 255.388848 
L 203.602263 255.444246 
L 206.92501 255.501264 
L 210.247757 255.559924 
L 213.570504 255.620251 
L 216.893251 255.682273 
L 220.215998 255.746016 
L 223.538745 255.811512 
L 226.861493 255.878791 
L 230.18424 255.947887 
L 233.506987 256.018835 
L 236.829734 256.091674 
L 240.152481 256.166444 
L 243.475228 256.243187 
L 246.797975 256.321951 
L 250.120722 256.402782 
L 253.44347 256.485735 
L 256.766217 256.570864 
L 260.088964 256.658231 
L 263.411711 256.747899 
L 266.734458 256.839939 
L 270.057205 256.934424 
L 273.379952 257.031437 
L 276.702699 257.131063 
L 280.025446 257.233398 
L 283.348194 257.338545 
L 286.670941 257.446615 
L 289.993688 257.557732 
L 293.316435 257.672027 
L 296.639182 257.789649 
L 299.961929 257.910758 
L 303.284676 258.035533 
L 306.607423 258.164171 
L 309.930171 258.296893 
L 313.252918 258.433944 
L 316.575665 258.5756 
L 319.898412 258.722173 
L 323.221159 258.874015 
L 326.543906 259.031529 
L 329.866653 259.195179 
L 333.1894 259.365501 
L 336.512148 259.543119 
L 339.834895 259.72877 
L 343.157642 259.923333 
L 346.480389 260.127863 
L 349.803136 260.343652 
L 353.125883 260.572304 
L 356.44863 260.815847 
L 359.771377 261.076908 
L 363.094125 261.358981 
L 366.416872 261.666885 
L 369.739619 262.007555 
L 373.062366 262.391598 
L 376.385113 262.836649 
L 379.70786 263.376107 
L 383.030607 264.090269 
L 386.353354 266.2245 
" clip-path="url(#paac895592b)" style="fill: none; stroke: #8c564b; stroke-width: 1.5; stroke-linecap: square"/>
   </g>
   <g id="line2d_41">
    <path d="M 49.107813 254.338125 
L 450.867813 254.338125 
" clip-path="url(#paac895592b)" style="fill: none; stroke-dasharray: 3.7,1.6; stroke-dashoffset: 0; stroke: #000000"/>
   </g>
   <g id="patch_3">
    <path d="M 49.107813 277.8165 
L 49.107813 22.7925 
" style="fill: none; stroke: #000000; stroke-width: 0.8; stroke-linejoin: miter; stroke-linecap: square"/>
   </g>
   <g id="patch_4">
    <path d="M 450.867813 277.8165 
L 450.867813 22.7925 
" style="fill: none; stroke: #000000; stroke-width: 0.8; stroke-linejoin: miter; stroke-linecap: square"/>
   </g>
   <g id="patch_5">
    <path d="M 49.107813 277.8165 
L 450.867813 277.8165 
" style="fill: none; stroke: #000000; stroke-width: 0.8; stroke-linejoin: miter; stroke-linecap: square"/>
   </g>
   <g id="patch_6">
    <path d="M 49.107813 22.7925 
L 450.867813 22.7925 
" style="fill: none; stroke: #000000; stroke-width: 0.8; stroke-linejoin: miter; stroke-linecap: square"/>
   </g>
   <g id="text_20">
    <!-- Q4 动态径向水分剖面 -->
    <g transform="translate(191.80375 16.7925) scale(0.12 -0.12)">
     <defs>
      <path id="MicrosoftYaHei-51" d="M 313 2363 
Q 313 3534 947 4228 
Q 1581 4922 2666 4922 
Q 3675 4922 4290 4244 
Q 4906 3566 4906 2478 
Q 4906 1300 4275 609 
Q 4125 447 3953 322 
L 5313 -653 
L 4284 -653 
L 3366 28 
Q 3009 -81 2588 -81 
Q 1556 -81 934 597 
Q 313 1275 313 2363 
z
M 969 2413 
Q 969 1534 1417 1004 
Q 1866 475 2588 475 
Q 3363 475 3805 983 
Q 4247 1491 4247 2403 
Q 4247 3341 3814 3850 
Q 3381 4359 2628 4359 
Q 1888 4359 1428 3821 
Q 969 3284 969 2413 
z
" transform="scale(0.015625)"/>
      <path id="MicrosoftYaHei-52a8" d="M 2975 4022 
L 3906 4022 
Q 3916 4650 3913 5309 
L 4425 5309 
Q 4422 4656 4409 4022 
L 6094 4022 
Q 6050 1659 5969 216 
Q 5900 -666 5150 -678 
Q 4763 -678 4306 -659 
Q 4263 -397 4206 -109 
Q 4638 -166 4994 -172 
Q 5456 -172 5475 347 
Q 5569 1897 5588 3547 
L 4400 3547 
Q 4394 3278 4388 3016 
Q 4356 553 2900 -872 
Q 2725 -659 2525 -447 
Q 3831 716 3888 3028 
Q 3894 3284 3900 3547 
L 2975 3547 
L 2975 4022 
z
M 2338 1866 
Q 2731 1016 3063 178 
Q 2788 59 2594 -28 
Q 2550 91 2506 209 
Q 1316 97 338 -16 
L 119 491 
Q 394 647 563 997 
Q 869 1613 1200 2559 
L 144 2559 
L 144 3022 
L 3163 3022 
L 3163 2559 
L 1725 2559 
Q 1191 1228 800 491 
Q 1519 544 2347 631 
Q 2138 1163 1906 1672 
L 2338 1866 
z
M 406 4778 
L 2913 4778 
L 2913 4316 
L 406 4316 
L 406 4778 
z
" transform="scale(0.015625)"/>
      <path id="MicrosoftYaHei-6001" d="M 325 4434 
L 2888 4434 
Q 2972 4822 2969 5328 
L 3438 5328 
Q 3444 4841 3372 4434 
L 6075 4434 
L 6075 3991 
L 3528 3991 
Q 4419 2706 6231 2241 
Q 6050 2034 5881 1759 
Q 4041 2394 3172 3772 
Q 2975 3331 2588 2953 
Q 3078 2616 3538 2259 
L 3225 1891 
Q 2828 2244 2259 2675 
Q 1556 2138 388 1703 
Q 294 1922 113 2178 
Q 2250 2866 2750 3991 
L 325 3991 
L 325 4434 
z
M 1713 1547 
L 2200 1547 
L 2200 203 
Q 2200 -172 2575 -172 
L 3763 -172 
Q 4175 -172 4256 134 
Q 4331 428 4381 1028 
Q 4556 953 4863 847 
Q 4763 128 4706 -47 
Q 4563 -616 3869 -616 
L 2488 -616 
Q 1713 -616 1713 172 
L 1713 1547 
z
M 813 1447 
L 1281 1297 
Q 1038 522 663 -297 
Q 463 -203 194 -116 
Q 569 591 813 1447 
z
M 4894 1272 
L 5263 1553 
Q 5781 972 6306 309 
L 5888 -9 
Q 5425 641 4894 1272 
z
M 2594 1503 
L 2913 1809 
Q 3419 1403 3850 991 
L 3488 641 
Q 3094 1059 2594 1503 
z
" transform="scale(0.015625)"/>
      <path id="MicrosoftYaHei-5f84" d="M 2388 4466 
L 2388 4891 
L 5738 4891 
L 5738 4459 
Q 5216 3866 4619 3391 
Q 5559 2888 6338 2428 
L 6038 1972 
Q 5256 2494 4216 3091 
Q 3253 2422 2106 2041 
Q 2000 2247 1850 2459 
Q 3894 3153 5025 4466 
L 2388 4466 
z
M 1931 -66 
L 3881 -66 
L 3881 1403 
L 2288 1403 
L 2288 1828 
L 5950 1828 
L 5950 1403 
L 4344 1403 
L 4344 -66 
L 6300 -66 
L 6300 -491 
L 1931 -491 
L 1931 -66 
z
M 38 1572 
Q 975 2353 1750 3809 
L 2175 3541 
Q 1844 2953 1475 2444 
L 1475 -816 
L 994 -816 
L 994 1831 
Q 638 1419 250 1066 
Q 156 1328 38 1572 
z
M 106 3616 
Q 1038 4359 1638 5391 
L 2063 5116 
Q 1356 3997 344 3134 
Q 238 3359 106 3616 
z
" transform="scale(0.015625)"/>
      <path id="MicrosoftYaHei-5411" d="M 1038 -772 
L 550 -772 
L 550 4359 
L 2394 4359 
Q 2550 4822 2694 5328 
L 3231 5178 
Q 3069 4741 2913 4359 
L 5838 4359 
L 5838 -34 
Q 5838 -741 5131 -741 
Q 4738 -741 4181 -728 
Q 4150 -509 4094 -241 
Q 4631 -284 5006 -284 
Q 5350 -284 5350 78 
L 5350 3897 
L 1038 3897 
L 1038 -772 
z
M 1894 2997 
L 4481 2997 
L 4481 803 
L 2369 803 
L 2369 372 
L 1894 372 
L 1894 2997 
z
M 4006 2547 
L 2369 2547 
L 2369 1253 
L 4006 1253 
L 4006 2547 
z
" transform="scale(0.015625)"/>
      <path id="MicrosoftYaHei-5256" d="M 594 1809 
L 3481 1809 
L 3481 -634 
L 3000 -634 
L 3000 -284 
L 1075 -284 
L 1075 -697 
L 594 -697 
L 594 1809 
z
M 5444 5216 
L 5931 5216 
L 5931 47 
Q 5931 -753 5163 -753 
Q 4763 -753 4306 -747 
Q 4281 -503 4213 -209 
Q 4656 -259 4994 -266 
Q 5444 -272 5444 197 
L 5444 5216 
z
M 3000 1378 
L 1075 1378 
L 1075 134 
L 3000 134 
L 3000 1378 
z
M 163 2859 
L 2256 2859 
Q 2566 3363 2900 4016 
L 3369 3759 
Q 3028 3241 2747 2859 
L 3913 2859 
L 3913 2441 
L 163 2441 
L 163 2859 
z
M 4244 4584 
L 4713 4584 
L 4713 634 
L 4244 634 
L 4244 4584 
z
M 338 4503 
L 1938 4503 
Q 1788 4803 1575 5159 
L 1994 5359 
Q 2275 4922 2413 4647 
L 2103 4503 
L 3738 4503 
L 3738 4084 
L 338 4084 
L 338 4503 
z
M 725 3772 
L 1106 4009 
Q 1438 3578 1688 3191 
L 1275 2922 
Q 1075 3284 725 3772 
z
" transform="scale(0.015625)"/>
      <path id="MicrosoftYaHei-9762" d="M 519 3659 
L 2500 3659 
Q 2681 4134 2794 4484 
L 188 4484 
L 188 4947 
L 6200 4947 
L 6200 4484 
L 3353 4484 
Q 3216 4144 3009 3659 
L 5850 3659 
L 5850 -809 
L 5369 -809 
L 5369 -459 
L 1000 -459 
L 1000 -816 
L 519 -816 
L 519 3659 
z
M 5369 3247 
L 4363 3247 
L 4363 -47 
L 5369 -47 
L 5369 3247 
z
M 1000 -47 
L 2006 -47 
L 2006 3247 
L 1000 3247 
L 1000 -47 
z
M 2456 -47 
L 3913 -47 
L 3913 784 
L 2456 784 
L 2456 -47 
z
M 2456 1184 
L 3913 1184 
L 3913 2016 
L 2456 2016 
L 2456 1184 
z
M 2456 2416 
L 3913 2416 
L 3913 3247 
L 2456 3247 
L 2456 2416 
z
" transform="scale(0.015625)"/>
     </defs>
     <use xlink:href="#MicrosoftYaHei-51"/>
     <use xlink:href="#MicrosoftYaHei-34" transform="translate(81.494141 0)"/>
     <use xlink:href="#MicrosoftYaHei-20" transform="translate(140.136719 0)"/>
     <use xlink:href="#MicrosoftYaHei-52a8" transform="translate(169.726562 0)"/>
     <use xlink:href="#MicrosoftYaHei-6001" transform="translate(269.726562 0)"/>
     <use xlink:href="#MicrosoftYaHei-5f84" transform="translate(369.726562 0)"/>
     <use xlink:href="#MicrosoftYaHei-5411" transform="translate(469.726562 0)"/>
     <use xlink:href="#MicrosoftYaHei-6c34" transform="translate(569.726562 0)"/>
     <use xlink:href="#MicrosoftYaHei-5206" transform="translate(669.726562 0)"/>
     <use xlink:href="#MicrosoftYaHei-5256" transform="translate(769.726562 0)"/>
     <use xlink:href="#MicrosoftYaHei-9762" transform="translate(869.726562 0)"/>
    </g>
   </g>
   <g id="legend_1">
    <g id="line2d_42">
     <path d="M 302.063125 36.28625 
L 312.063125 36.28625 
L 322.063125 36.28625 
" style="fill: none; stroke: #1f77b4; stroke-width: 1.5; stroke-linecap: square"/>
    </g>
    <g id="text_21">
     <!-- 6 h -->
     <g transform="translate(330.063125 39.78625) scale(0.1 -0.1)">
      <defs>
       <path id="MicrosoftYaHei-68" d="M 3466 0 
L 2856 0 
L 2856 1988 
Q 2856 3031 2081 3031 
Q 1684 3031 1421 2726 
Q 1159 2422 1159 1959 
L 1159 0 
L 547 0 
L 547 5116 
L 1159 5116 
L 1159 2888 
L 1172 2888 
Q 1569 3538 2300 3538 
Q 3466 3538 3466 2128 
L 3466 0 
z
" transform="scale(0.015625)"/>
      </defs>
      <use xlink:href="#MicrosoftYaHei-36"/>
      <use xlink:href="#MicrosoftYaHei-20" transform="translate(58.642578 0)"/>
      <use xlink:href="#MicrosoftYaHei-68" transform="translate(88.232422 0)"/>
     </g>
    </g>
    <g id="line2d_43">
     <path d="M 302.063125 51.765937 
L 312.063125 51.765937 
L 322.063125 51.765937 
" style="fill: none; stroke: #ff7f0e; stroke-width: 1.5; stroke-linecap: square"/>
    </g>
    <g id="text_22">
     <!-- 12 h -->
     <g transform="translate(330.063125 55.265937) scale(0.1 -0.1)">
      <use xlink:href="#MicrosoftYaHei-31"/>
      <use xlink:href="#MicrosoftYaHei-32" transform="translate(58.642578 0)"/>
      <use xlink:href="#MicrosoftYaHei-20" transform="translate(117.285156 0)"/>
      <use xlink:href="#MicrosoftYaHei-68" transform="translate(146.875 0)"/>
     </g>
    </g>
    <g id="line2d_44">
     <path d="M 302.063125 67.245625 
L 312.063125 67.245625 
L 322.063125 67.245625 
" style="fill: none; stroke: #2ca02c; stroke-width: 1.5; stroke-linecap: square"/>
    </g>
    <g id="text_23">
     <!-- 18 h -->
     <g transform="translate(330.063125 70.745625) scale(0.1 -0.1)">
      <use xlink:href="#MicrosoftYaHei-31"/>
      <use xlink:href="#MicrosoftYaHei-38" transform="translate(58.642578 0)"/>
      <use xlink:href="#MicrosoftYaHei-20" transform="translate(117.285156 0)"/>
      <use xlink:href="#MicrosoftYaHei-68" transform="translate(146.875 0)"/>
     </g>
    </g>
    <g id="line2d_45">
     <path d="M 302.063125 82.725312 
L 312.063125 82.725312 
L 322.063125 82.725312 
" style="fill: none; stroke: #d62728; stroke-width: 1.5; stroke-linecap: square"/>
    </g>
    <g id="text_24">
     <!-- 24 h -->
     <g transform="translate(330.063125 86.225312) scale(0.1 -0.1)">
      <use xlink:href="#MicrosoftYaHei-32"/>
      <use xlink:href="#MicrosoftYaHei-34" transform="translate(58.642578 0)"/>
      <use xlink:href="#MicrosoftYaHei-20" transform="translate(117.285156 0)"/>
      <use xlink:href="#MicrosoftYaHei-68" transform="translate(146.875 0)"/>
     </g>
    </g>
    <g id="line2d_46">
     <path d="M 370.908437 36.28625 
L 380.908437 36.28625 
L 390.908437 36.28625 
" style="fill: none; stroke: #9467bd; stroke-width: 1.5; stroke-linecap: square"/>
    </g>
    <g id="text_25">
     <!-- 48 h -->
     <g transform="translate(398.908437 39.78625) scale(0.1 -0.1)">
      <use xlink:href="#MicrosoftYaHei-34"/>
      <use xlink:href="#MicrosoftYaHei-38" transform="translate(58.642578 0)"/>
      <use xlink:href="#MicrosoftYaHei-20" transform="translate(117.285156 0)"/>
      <use xlink:href="#MicrosoftYaHei-68" transform="translate(146.875 0)"/>
     </g>
    </g>
    <g id="line2d_47">
     <path d="M 370.908437 51.765937 
L 380.908437 51.765937 
L 390.908437 51.765937 
" style="fill: none; stroke: #8c564b; stroke-width: 1.5; stroke-linecap: square"/>
    </g>
    <g id="text_26">
     <!-- 实际 t4 -->
     <g transform="translate(398.908437 55.265937) scale(0.1 -0.1)">
      <defs>
       <path id="MicrosoftYaHei-5b9e" d="M 113 -397 
Q 2419 34 3081 972 
L 213 972 
L 213 1434 
L 3313 1434 
Q 3525 2084 3506 3703 
L 4031 3703 
Q 4031 2097 3856 1434 
L 6225 1434 
L 6225 972 
L 3681 972 
Q 3631 872 3563 759 
Q 4900 197 6181 -403 
L 5906 -878 
Q 4569 -197 3263 391 
Q 2413 -441 413 -891 
Q 269 -616 113 -397 
z
M 331 4422 
L 3194 4422 
Q 3038 4703 2775 5078 
L 3231 5334 
Q 3438 5059 3731 4609 
L 3388 4422 
L 6063 4422 
L 6063 3303 
L 5563 3303 
L 5563 3959 
L 831 3959 
L 831 3303 
L 331 3303 
L 331 4422 
z
M 1100 2734 
Q 1819 2409 2450 2053 
L 2181 1622 
Q 1556 2003 863 2334 
L 1100 2734 
z
M 1663 3691 
Q 2388 3341 2981 2984 
L 2700 2559 
Q 2119 2934 1419 3322 
L 1663 3691 
z
" transform="scale(0.015625)"/>
       <path id="MicrosoftYaHei-9645" d="M 2256 1678 
Q 2419 503 1656 334 
Q 1413 284 1025 328 
Q 975 584 888 834 
Q 1219 753 1469 784 
Q 1906 834 1763 1678 
Q 1675 2166 1169 2828 
Q 1425 3591 1681 4491 
L 850 4491 
L 850 -841 
L 375 -841 
L 375 4953 
L 2200 4953 
L 2200 4503 
Q 1913 3572 1694 2884 
Q 2194 2203 2256 1678 
z
M 2150 3228 
L 6225 3228 
L 6225 2766 
L 4425 2766 
L 4425 16 
Q 4425 -747 3688 -747 
Q 3394 -747 2938 -741 
Q 2881 -403 2838 -209 
Q 3313 -259 3575 -259 
Q 3938 -259 3938 122 
L 3938 2766 
L 2150 2766 
L 2150 3228 
z
M 2488 4803 
L 5888 4803 
L 5888 4341 
L 2488 4341 
L 2488 4803 
z
M 2969 2097 
L 3431 1928 
Q 2988 747 2481 -222 
Q 2206 -72 2038 -3 
Q 2594 1003 2969 2097 
z
M 4900 1872 
L 5331 2084 
Q 5844 1041 6300 53 
L 5844 -166 
Q 5494 641 4900 1872 
z
" transform="scale(0.015625)"/>
       <path id="MicrosoftYaHei-74" d="M 2206 34 
Q 2006 -75 1666 -75 
Q 738 -75 738 953 
L 738 2950 
L 144 2950 
L 144 3456 
L 738 3456 
L 738 4288 
L 1347 4481 
L 1347 3456 
L 2206 3456 
L 2206 2950 
L 1347 2950 
L 1347 1063 
Q 1347 722 1462 575 
Q 1578 428 1847 428 
Q 2053 428 2206 544 
L 2206 34 
z
" transform="scale(0.015625)"/>
      </defs>
      <use xlink:href="#MicrosoftYaHei-5b9e"/>
      <use xlink:href="#MicrosoftYaHei-9645" transform="translate(100 0)"/>
      <use xlink:href="#MicrosoftYaHei-20" transform="translate(200 0)"/>
      <use xlink:href="#MicrosoftYaHei-74" transform="translate(229.589844 0)"/>
      <use xlink:href="#MicrosoftYaHei-34" transform="translate(266.845703 0)"/>
     </g>
    </g>
    <g id="line2d_48">
     <path d="M 370.908437 67.245625 
L 380.908437 67.245625 
L 390.908437 67.245625 
" style="fill: none; stroke-dasharray: 3.7,1.6; stroke-dashoffset: 0; stroke: #000000"/>
    </g>
    <g id="text_27">
     <!-- 阈值 0.15 -->
     <g transform="translate(398.908437 70.745625) scale(0.1 -0.1)">
      <defs>
       <path id="MicrosoftYaHei-9608" d="M 3163 703 
Q 3475 947 3731 1234 
Q 3500 1984 3419 3141 
L 1225 3141 
L 1225 3541 
L 3394 3541 
Q 3381 3891 3381 4284 
L 3813 4284 
Q 3819 3891 3838 3541 
L 5313 3541 
L 5313 3141 
L 3856 3141 
Q 3925 2266 4075 1659 
Q 4425 2153 4650 2753 
L 5075 2572 
Q 4725 1791 4231 1166 
Q 4344 872 4488 678 
Q 4706 434 4763 691 
Q 4819 984 4844 1266 
Q 5088 1159 5269 1122 
Q 5194 584 5131 316 
Q 5038 -59 4819 -59 
Q 4469 -59 4106 434 
Q 3994 584 3906 784 
Q 3656 516 3381 284 
Q 3281 528 3163 703 
z
M 2425 4491 
L 2425 4916 
L 5988 4916 
L 5988 -3 
Q 5988 -766 5181 -766 
Q 4819 -766 4356 -753 
Q 4300 -403 4256 -284 
Q 4769 -322 5088 -322 
Q 5544 -322 5544 97 
L 5544 4491 
L 2425 4491 
z
M 1425 2609 
L 3106 2609 
L 3106 909 
L 2700 909 
L 2700 1134 
L 1831 1134 
L 1831 847 
L 1425 847 
L 1425 2609 
z
M 431 4084 
L 875 4084 
L 875 -816 
L 431 -816 
L 431 4084 
z
M 1119 378 
Q 2169 466 3200 578 
Q 3206 347 3213 153 
Q 2256 59 1181 -47 
L 1119 378 
z
M 2700 2234 
L 1831 2234 
L 1831 1509 
L 2700 1509 
L 2700 2234 
z
M 800 4984 
L 1119 5278 
Q 1563 4872 1975 4422 
L 1613 4091 
Q 1213 4566 800 4984 
z
M 4038 4141 
L 4269 4428 
Q 4619 4184 4931 3934 
L 4663 3616 
Q 4444 3809 4038 4141 
z
" transform="scale(0.015625)"/>
       <path id="MicrosoftYaHei-503c" d="M 1619 -216 
L 2250 -216 
L 2250 3653 
L 3725 3653 
L 3725 4222 
L 1913 4222 
L 1913 4647 
L 3725 4647 
L 3725 5309 
L 4200 5309 
L 4200 4647 
L 6169 4647 
L 6169 4222 
L 4200 4222 
L 4200 3653 
L 5713 3653 
L 5713 -216 
L 6306 -216 
L 6306 -641 
L 1619 -641 
L 1619 -216 
z
M 69 2247 
Q 906 3497 1369 5278 
L 1831 5141 
Q 1581 4334 1288 3628 
L 1288 -816 
L 831 -816 
L 831 2666 
Q 563 2166 263 1734 
Q 175 1997 69 2247 
z
M 2713 -216 
L 5250 -216 
L 5250 353 
L 2713 353 
L 2713 -216 
z
M 5250 3241 
L 2713 3241 
L 2713 2678 
L 5250 2678 
L 5250 3241 
z
M 2713 1716 
L 5250 1716 
L 5250 2278 
L 2713 2278 
L 2713 1716 
z
M 2713 753 
L 5250 753 
L 5250 1316 
L 2713 1316 
L 2713 753 
z
" transform="scale(0.015625)"/>
      </defs>
      <use xlink:href="#MicrosoftYaHei-9608"/>
      <use xlink:href="#MicrosoftYaHei-503c" transform="translate(100 0)"/>
      <use xlink:href="#MicrosoftYaHei-20" transform="translate(200 0)"/>
      <use xlink:href="#MicrosoftYaHei-30" transform="translate(229.589844 0)"/>
      <use xlink:href="#MicrosoftYaHei-2e" transform="translate(288.232422 0)"/>
      <use xlink:href="#MicrosoftYaHei-31" transform="translate(312.304688 0)"/>
      <use xlink:href="#MicrosoftYaHei-35" transform="translate(370.947266 0)"/>
     </g>
    </g>
   </g>
  </g>
 </g>
 <defs>
  <clipPath id="paac895592b">
   <rect x="49.107813" y="22.7925" width="401.76" height="255.024"/>
  </clipPath>
 </defs>
</svg>
