<?xml version="1.0" encoding="utf-8" standalone="no"?>
<!DOCTYPE svg PUBLIC "-//W3C//DTD SVG 1.1//EN"
  "http://www.w3.org/Graphics/SVG/1.1/DTD/svg11.dtd">
<svg xmlns:xlink="http://www.w3.org/1999/xlink" width="451.775625pt" height="316.975875pt" viewBox="0 0 451.775625 316.975875" xmlns="http://www.w3.org/2000/svg" version="1.1">
 <metadata>
  <rdf:RDF xmlns:dc="http://purl.org/dc/elements/1.1/" xmlns:cc="http://creativecommons.org/ns#" xmlns:rdf="http://www.w3.org/1999/02/22-rdf-syntax-ns#">
   <cc:Work>
    <dc:type rdf:resource="http://purl.org/dc/dcmitype/StillImage"/>
    <dc:date>2026-09-12T19:30:18.424592</dc:date>
    <dc:format>image/svg+xml</dc:format>
    <dc:creator>
     <cc:Agent>
      <dc:title>Matplotlib v3.10.6, https://matplotlib.org/</dc:title>
     </cc:Agent>
    </dc:creator>
   </cc:Work>
  </rdf:RDF>
 </metadata>
 <defs>
  <style type="text/css">*{stroke-linejoin: round; stroke-linecap: butt}</style>
 </defs>
 <g id="figure_1">
  <g id="patch_1">
   <path d="M 0 316.975875 
L 451.775625 316.975875 
L 451.775625 0 
L 0 0 
z
" style="fill: #ffffff"/>
  </g>
  <g id="axes_1">
   <g id="patch_2">
    <path d="M 42.815625 277.8165 
L 444.575625 277.8165 
L 444.575625 22.7925 
L 42.815625 22.7925 
z
" style="fill: #ffffff"/>
   </g>
   <g id="matplotlib.axis_1">
    <g id="xtick_1">
     <g id="line2d_1">
      <path d="M 61.077443 277.8165 
L 61.077443 22.7925 
" clip-path="url(#p8389ececdb)" style="fill: none; stroke: #b0b0b0; stroke-opacity: 0.25; stroke-width: 0.8; stroke-linecap: square"/>
     </g>
     <g id="line2d_2">
      <defs>
       <path id="m4fbb34aaae" d="M 0 0 
L 0 3.5 
" style="stroke: #000000; stroke-width: 0.8"/>
      </defs>
      <g>
       <use xlink:href="#m4fbb34aaae" x="61.077443" y="277.8165" style="stroke: #000000; stroke-width: 0.8"/>
      </g>
     </g>
     <g id="text_1">
      <!-- 0 -->
      <g transform="translate(58.145412 292.81025) scale(0.1 -0.1)">
       <defs>
        <path id="MicrosoftYaHei-30" d="M 284 2325 
Q 284 3606 709 4264 
Q 1134 4922 1941 4922 
Q 3478 4922 3478 2441 
Q 3478 1216 3045 567 
Q 2613 -81 1831 -81 
Q 1094 -81 689 534 
Q 284 1150 284 2325 
z
M 909 2353 
Q 909 425 1888 425 
Q 2850 425 2850 2384 
Q 2850 4413 1906 4413 
Q 909 4413 909 2353 
z
" transform="scale(0.015625)"/>
       </defs>
       <use xlink:href="#MicrosoftYaHei-30"/>
      </g>
     </g>
    </g>
    <g id="xtick_2">
     <g id="line2d_3">
      <path d="M 111.804716 277.8165 
L 111.804716 22.7925 
" clip-path="url(#p8389ececdb)" style="fill: none; stroke: #b0b0b0; stroke-opacity: 0.25; stroke-width: 0.8; stroke-linecap: square"/>
     </g>
     <g id="line2d_4">
      <g>
       <use xlink:href="#m4fbb34aaae" x="111.804716" y="277.8165" style="stroke: #000000; stroke-width: 0.8"/>
      </g>
     </g>
     <g id="text_2">
      <!-- 10 -->
      <g transform="translate(105.940653 292.81025) scale(0.1 -0.1)">
       <defs>
        <path id="MicrosoftYaHei-31" d="M 1781 0 
L 1781 4141 
Q 1638 3997 1295 3819 
Q 953 3641 663 3569 
L 663 4169 
Q 1047 4275 1484 4508 
Q 1922 4741 2156 4947 
L 2388 4947 
L 2388 0 
L 1781 0 
z
" transform="scale(0.015625)"/>
       </defs>
       <use xlink:href="#MicrosoftYaHei-31"/>
       <use xlink:href="#MicrosoftYaHei-30" transform="translate(58.642578 0)"/>
      </g>
     </g>
    </g>
    <g id="xtick_3">
     <g id="line2d_5">
      <path d="M 162.531989 277.8165 
L 162.531989 22.7925 
" clip-path="url(#p8389ececdb)" style="fill: none; stroke: #b0b0b0; stroke-opacity: 0.25; stroke-width: 0.8; stroke-linecap: square"/>
     </g>
     <g id="line2d_6">
      <g>
       <use xlink:href="#m4fbb34aaae" x="162.531989" y="277.8165" style="stroke: #000000; stroke-width: 0.8"/>
      </g>
     </g>
     <g id="text_3">
      <!-- 20 -->
      <g transform="translate(156.667926 292.81025) scale(0.1 -0.1)">
       <defs>
        <path id="MicrosoftYaHei-32" d="M 2666 3572 
Q 2666 3963 2419 4186 
Q 2172 4409 1747 4409 
Q 1447 4409 1140 4256 
Q 834 4103 569 3819 
L 569 4413 
Q 806 4659 1107 4790 
Q 1409 4922 1816 4922 
Q 2472 4922 2872 4570 
Q 3272 4219 3272 3619 
Q 3272 3084 3026 2693 
Q 2781 2303 2188 1894 
Q 1581 1475 1376 1294 
Q 1172 1113 1090 947 
Q 1009 781 1009 544 
L 3416 544 
L 3416 0 
L 372 0 
L 372 241 
Q 372 659 486 951 
Q 600 1244 862 1520 
Q 1125 1797 1681 2184 
Q 2250 2584 2458 2886 
Q 2666 3188 2666 3572 
z
" transform="scale(0.015625)"/>
       </defs>
       <use xlink:href="#MicrosoftYaHei-32"/>
       <use xlink:href="#MicrosoftYaHei-30" transform="translate(58.642578 0)"/>
      </g>
     </g>
    </g>
    <g id="xtick_4">
     <g id="line2d_7">
      <path d="M 213.259261 277.8165 
L 213.259261 22.7925 
" clip-path="url(#p8389ececdb)" style="fill: none; stroke: #b0b0b0; stroke-opacity: 0.25; stroke-width: 0.8; stroke-linecap: square"/>
     </g>
     <g id="line2d_8">
      <g>
       <use xlink:href="#m4fbb34aaae" x="213.259261" y="277.8165" style="stroke: #000000; stroke-width: 0.8"/>
      </g>
     </g>
     <g id="text_4">
      <!-- 30 -->
      <g transform="translate(207.395199 292.81025) scale(0.1 -0.1)">
       <defs>
        <path id="MicrosoftYaHei-33" d="M 447 809 
Q 944 425 1569 425 
Q 2069 425 2361 670 
Q 2653 916 2653 1328 
Q 2653 2247 1338 2247 
L 934 2247 
L 934 2753 
L 1319 2753 
Q 2484 2753 2484 3616 
Q 2484 4413 1594 4413 
Q 1084 4413 634 4069 
L 634 4647 
Q 1109 4922 1744 4922 
Q 2363 4922 2738 4598 
Q 3113 4275 3113 3759 
Q 3113 2809 2144 2538 
L 2144 2525 
Q 2669 2469 2973 2155 
Q 3278 1841 3278 1372 
Q 3278 719 2808 319 
Q 2338 -81 1556 -81 
Q 869 -81 447 175 
L 447 809 
z
" transform="scale(0.015625)"/>
       </defs>
       <use xlink:href="#MicrosoftYaHei-33"/>
       <use xlink:href="#MicrosoftYaHei-30" transform="translate(58.642578 0)"/>
      </g>
     </g>
    </g>
    <g id="xtick_5">
     <g id="line2d_9">
      <path d="M 263.986534 277.8165 
L 263.986534 22.7925 
" clip-path="url(#p8389ececdb)" style="fill: none; stroke: #b0b0b0; stroke-opacity: 0.25; stroke-width: 0.8; stroke-linecap: square"/>
     </g>
     <g id="line2d_10">
      <g>
       <use xlink:href="#m4fbb34aaae" x="263.986534" y="277.8165" style="stroke: #000000; stroke-width: 0.8"/>
      </g>
     </g>
     <g id="text_5">
      <!-- 40 -->
      <g transform="translate(258.122472 292.81025) scale(0.1 -0.1)">
       <defs>
        <path id="MicrosoftYaHei-34" d="M 2906 4841 
L 2906 1644 
L 3631 1644 
L 3631 1138 
L 2906 1138 
L 2906 0 
L 2313 0 
L 2313 1138 
L 53 1138 
L 53 1616 
Q 656 2294 1265 3178 
Q 1875 4063 2272 4841 
L 2906 4841 
z
M 741 1644 
L 2313 1644 
L 2313 3950 
Q 1988 3366 1616 2817 
Q 1244 2269 741 1644 
z
" transform="scale(0.015625)"/>
       </defs>
       <use xlink:href="#MicrosoftYaHei-34"/>
       <use xlink:href="#MicrosoftYaHei-30" transform="translate(58.642578 0)"/>
      </g>
     </g>
    </g>
    <g id="xtick_6">
     <g id="line2d_11">
      <path d="M 314.713807 277.8165 
L 314.713807 22.7925 
" clip-path="url(#p8389ececdb)" style="fill: none; stroke: #b0b0b0; stroke-opacity: 0.25; stroke-width: 0.8; stroke-linecap: square"/>
     </g>
     <g id="line2d_12">
      <g>
       <use xlink:href="#m4fbb34aaae" x="314.713807" y="277.8165" style="stroke: #000000; stroke-width: 0.8"/>
      </g>
     </g>
     <g id="text_6">
      <!-- 50 -->
      <g transform="translate(308.849744 292.81025) scale(0.1 -0.1)">
       <defs>
        <path id="MicrosoftYaHei-35" d="M 3294 1494 
Q 3294 784 2823 350 
Q 2353 -84 1559 -84 
Q 878 -84 544 119 
L 544 744 
Q 1034 425 1544 425 
Q 2050 425 2361 704 
Q 2672 984 2672 1447 
Q 2672 1909 2348 2167 
Q 2025 2425 1434 2425 
Q 978 2425 613 2384 
L 791 4841 
L 3053 4841 
L 3053 4303 
L 1306 4303 
L 1206 2931 
L 1647 2950 
Q 2416 2950 2855 2567 
Q 3294 2184 3294 1494 
z
" transform="scale(0.015625)"/>
       </defs>
       <use xlink:href="#MicrosoftYaHei-35"/>
       <use xlink:href="#MicrosoftYaHei-30" transform="translate(58.642578 0)"/>
      </g>
     </g>
    </g>
    <g id="xtick_7">
     <g id="line2d_13">
      <path d="M 365.44108 277.8165 
L 365.44108 22.7925 
" clip-path="url(#p8389ececdb)" style="fill: none; stroke: #b0b0b0; stroke-opacity: 0.25; stroke-width: 0.8; stroke-linecap: square"/>
     </g>
     <g id="line2d_14">
      <g>
       <use xlink:href="#m4fbb34aaae" x="365.44108" y="277.8165" style="stroke: #000000; stroke-width: 0.8"/>
      </g>
     </g>
     <g id="text_7">
      <!-- 60 -->
      <g transform="translate(359.577017 292.81025) scale(0.1 -0.1)">
       <defs>
        <path id="MicrosoftYaHei-36" d="M 3181 4219 
Q 2803 4413 2391 4413 
Q 1763 4413 1381 3866 
Q 1000 3319 994 2372 
L 1009 2372 
Q 1353 3038 2106 3038 
Q 2734 3038 3109 2628 
Q 3484 2219 3484 1541 
Q 3484 831 3051 375 
Q 2619 -81 1947 -81 
Q 1209 -81 789 495 
Q 369 1072 369 2131 
Q 369 3413 920 4167 
Q 1472 4922 2372 4922 
Q 2888 4922 3181 4781 
L 3181 4219 
z
M 1031 1584 
Q 1031 1106 1286 765 
Q 1541 425 1963 425 
Q 2363 425 2613 719 
Q 2863 1013 2863 1475 
Q 2863 1975 2627 2253 
Q 2391 2531 1956 2531 
Q 1544 2531 1287 2250 
Q 1031 1969 1031 1584 
z
" transform="scale(0.015625)"/>
       </defs>
       <use xlink:href="#MicrosoftYaHei-36"/>
       <use xlink:href="#MicrosoftYaHei-30" transform="translate(58.642578 0)"/>
      </g>
     </g>
    </g>
    <g id="xtick_8">
     <g id="line2d_15">
      <path d="M 416.168352 277.8165 
L 416.168352 22.7925 
" clip-path="url(#p8389ececdb)" style="fill: none; stroke: #b0b0b0; stroke-opacity: 0.25; stroke-width: 0.8; stroke-linecap: square"/>
     </g>
     <g id="line2d_16">
      <g>
       <use xlink:href="#m4fbb34aaae" x="416.168352" y="277.8165" style="stroke: #000000; stroke-width: 0.8"/>
      </g>
     </g>
     <g id="text_8">
      <!-- 70 -->
      <g transform="translate(410.30429 292.81025) scale(0.1 -0.1)">
       <defs>
        <path id="MicrosoftYaHei-37" d="M 3422 4463 
Q 2659 3131 2223 1998 
Q 1788 866 1684 0 
L 1047 0 
Q 1163 853 1594 1947 
Q 2025 3041 2747 4300 
L 347 4300 
L 347 4841 
L 3422 4841 
L 3422 4463 
z
" transform="scale(0.015625)"/>
       </defs>
       <use xlink:href="#MicrosoftYaHei-37"/>
       <use xlink:href="#MicrosoftYaHei-30" transform="translate(58.642578 0)"/>
      </g>
     </g>
    </g>
    <g id="text_9">
     <!-- 时间 t (h) -->
     <g transform="translate(222.454219 307.289937) scale(0.1 -0.1)">
      <defs>
       <path id="MicrosoftYaHei-65f6" d="M 344 4728 
L 2500 4728 
L 2500 -366 
L 2006 -366 
L 2006 153 
L 838 153 
L 838 -441 
L 344 -441 
L 344 4728 
z
M 2706 3941 
L 4925 3941 
L 4925 5322 
L 5425 5322 
L 5425 3941 
L 6313 3941 
L 6313 3478 
L 5425 3478 
L 5425 116 
Q 5425 -722 4625 -722 
Q 4263 -722 3563 -703 
Q 3531 -478 3463 -178 
Q 4119 -228 4488 -228 
Q 4925 -228 4925 216 
L 4925 3478 
L 2706 3478 
L 2706 3941 
z
M 838 616 
L 2006 616 
L 2006 2234 
L 838 2234 
L 838 616 
z
M 2006 4266 
L 838 4266 
L 838 2684 
L 2006 2684 
L 2006 4266 
z
M 3406 2878 
Q 3906 1966 4163 1422 
Q 4000 1347 3663 1172 
Q 3419 1766 2963 2653 
L 3406 2878 
z
" transform="scale(0.015625)"/>
       <path id="MicrosoftYaHei-95f4" d="M 1863 3647 
L 4513 3647 
L 4513 553 
L 2313 553 
L 2313 166 
L 1863 166 
L 1863 3647 
z
M 2388 4453 
L 2388 4922 
L 6013 4922 
L 6013 -28 
Q 6013 -816 5119 -816 
Q 4756 -816 4169 -803 
Q 4144 -616 4069 -297 
Q 4588 -334 5056 -334 
Q 5525 -334 5525 122 
L 5525 4453 
L 2388 4453 
z
M 419 4084 
L 906 4084 
L 906 -816 
L 419 -816 
L 419 4084 
z
M 2313 997 
L 4063 997 
L 4063 1884 
L 2313 1884 
L 2313 997 
z
M 4063 3203 
L 2313 3203 
L 2313 2328 
L 4063 2328 
L 4063 3203 
z
M 744 5003 
L 1100 5322 
Q 1575 4872 1981 4447 
L 1575 4091 
Q 1194 4541 744 5003 
z
" transform="scale(0.015625)"/>
       <path id="MicrosoftYaHei-20" transform="scale(0.015625)"/>
       <path id="MicrosoftYaHei-74" d="M 2206 34 
Q 2006 -75 1666 -75 
Q 738 -75 738 953 
L 738 2950 
L 144 2950 
L 144 3456 
L 738 3456 
L 738 4288 
L 1347 4481 
L 1347 3456 
L 2206 3456 
L 2206 2950 
L 1347 2950 
L 1347 1063 
Q 1347 722 1462 575 
Q 1578 428 1847 428 
Q 2053 428 2206 544 
L 2206 34 
z
" transform="scale(0.015625)"/>
       <path id="MicrosoftYaHei-28" d="M 1531 -1100 
Q 478 100 478 1847 
Q 478 3594 1531 4841 
L 2072 4841 
Q 1016 3544 1016 1853 
Q 1016 166 2066 -1100 
L 1531 -1100 
z
" transform="scale(0.015625)"/>
       <path id="MicrosoftYaHei-68" d="M 3466 0 
L 2856 0 
L 2856 1988 
Q 2856 3031 2081 3031 
Q 1684 3031 1421 2726 
Q 1159 2422 1159 1959 
L 1159 0 
L 547 0 
L 547 5116 
L 1159 5116 
L 1159 2888 
L 1172 2888 
Q 1569 3538 2300 3538 
Q 3466 3538 3466 2128 
L 3466 0 
z
" transform="scale(0.015625)"/>
       <path id="MicrosoftYaHei-29" d="M 78 -1100 
Q 1131 163 1131 1853 
Q 1131 3547 72 4841 
L 616 4841 
Q 1672 3603 1672 1847 
Q 1672 91 616 -1100 
L 78 -1100 
z
" transform="scale(0.015625)"/>
      </defs>
      <use xlink:href="#MicrosoftYaHei-65f6"/>
      <use xlink:href="#MicrosoftYaHei-95f4" transform="translate(100 0)"/>
      <use xlink:href="#MicrosoftYaHei-20" transform="translate(200 0)"/>
      <use xlink:href="#MicrosoftYaHei-74" transform="translate(229.589844 0)"/>
      <use xlink:href="#MicrosoftYaHei-20" transform="translate(266.845703 0)"/>
      <use xlink:href="#MicrosoftYaHei-28" transform="translate(296.435547 0)"/>
      <use xlink:href="#MicrosoftYaHei-68" transform="translate(329.833984 0)"/>
      <use xlink:href="#MicrosoftYaHei-29" transform="translate(391.40625 0)"/>
     </g>
    </g>
   </g>
   <g id="matplotlib.axis_2">
    <g id="ytick_1">
     <g id="line2d_17">
      <path d="M 42.815625 265.646345 
L 444.575625 265.646345 
" clip-path="url(#p8389ececdb)" style="fill: none; stroke: #b0b0b0; stroke-opacity: 0.25; stroke-width: 0.8; stroke-linecap: square"/>
     </g>
     <g id="line2d_18">
      <defs>
       <path id="m7f890e1f84" d="M 0 0 
L -3.5 0 
" style="stroke: #000000; stroke-width: 0.8"/>
      </defs>
      <g>
       <use xlink:href="#m7f890e1f84" x="42.815625" y="265.646345" style="stroke: #000000; stroke-width: 0.8"/>
      </g>
     </g>
     <g id="text_10">
      <!-- 1.2 -->
      <g transform="translate(21.679687 269.64322) scale(0.1 -0.1)">
       <defs>
        <path id="MicrosoftYaHei-2e" d="M 372 322 
Q 372 491 487 606 
Q 603 722 775 722 
Q 950 722 1065 605 
Q 1181 488 1181 322 
Q 1181 159 1065 42 
Q 950 -75 772 -75 
Q 600 -75 486 42 
Q 372 159 372 322 
z
" transform="scale(0.015625)"/>
       </defs>
       <use xlink:href="#MicrosoftYaHei-31"/>
       <use xlink:href="#MicrosoftYaHei-2e" transform="translate(58.642578 0)"/>
       <use xlink:href="#MicrosoftYaHei-32" transform="translate(82.714844 0)"/>
      </g>
     </g>
    </g>
    <g id="ytick_2">
     <g id="line2d_19">
      <path d="M 42.815625 236.738615 
L 444.575625 236.738615 
" clip-path="url(#p8389ececdb)" style="fill: none; stroke: #b0b0b0; stroke-opacity: 0.25; stroke-width: 0.8; stroke-linecap: square"/>
     </g>
     <g id="line2d_20">
      <g>
       <use xlink:href="#m7f890e1f84" x="42.815625" y="236.738615" style="stroke: #000000; stroke-width: 0.8"/>
      </g>
     </g>
     <g id="text_11">
      <!-- 1.3 -->
      <g transform="translate(21.679687 240.73549) scale(0.1 -0.1)">
       <use xlink:href="#MicrosoftYaHei-31"/>
       <use xlink:href="#MicrosoftYaHei-2e" transform="translate(58.642578 0)"/>
       <use xlink:href="#MicrosoftYaHei-33" transform="translate(82.714844 0)"/>
      </g>
     </g>
    </g>
    <g id="ytick_3">
     <g id="line2d_21">
      <path d="M 42.815625 207.830884 
L 444.575625 207.830884 
" clip-path="url(#p8389ececdb)" style="fill: none; stroke: #b0b0b0; stroke-opacity: 0.25; stroke-width: 0.8; stroke-linecap: square"/>
     </g>
     <g id="line2d_22">
      <g>
       <use xlink:href="#m7f890e1f84" x="42.815625" y="207.830884" style="stroke: #000000; stroke-width: 0.8"/>
      </g>
     </g>
     <g id="text_12">
      <!-- 1.4 -->
      <g transform="translate(21.679687 211.827759) scale(0.1 -0.1)">
       <use xlink:href="#MicrosoftYaHei-31"/>
       <use xlink:href="#MicrosoftYaHei-2e" transform="translate(58.642578 0)"/>
       <use xlink:href="#MicrosoftYaHei-34" transform="translate(82.714844 0)"/>
      </g>
     </g>
    </g>
    <g id="ytick_4">
     <g id="line2d_23">
      <path d="M 42.815625 178.923153 
L 444.575625 178.923153 
" clip-path="url(#p8389ececdb)" style="fill: none; stroke: #b0b0b0; stroke-opacity: 0.25; stroke-width: 0.8; stroke-linecap: square"/>
     </g>
     <g id="line2d_24">
      <g>
       <use xlink:href="#m7f890e1f84" x="42.815625" y="178.923153" style="stroke: #000000; stroke-width: 0.8"/>
      </g>
     </g>
     <g id="text_13">
      <!-- 1.5 -->
      <g transform="translate(21.679687 182.920028) scale(0.1 -0.1)">
       <use xlink:href="#MicrosoftYaHei-31"/>
       <use xlink:href="#MicrosoftYaHei-2e" transform="translate(58.642578 0)"/>
       <use xlink:href="#MicrosoftYaHei-35" transform="translate(82.714844 0)"/>
      </g>
     </g>
    </g>
    <g id="ytick_5">
     <g id="line2d_25">
      <path d="M 42.815625 150.015423 
L 444.575625 150.015423 
" clip-path="url(#p8389ececdb)" style="fill: none; stroke: #b0b0b0; stroke-opacity: 0.25; stroke-width: 0.8; stroke-linecap: square"/>
     </g>
     <g id="line2d_26">
      <g>
       <use xlink:href="#m7f890e1f84" x="42.815625" y="150.015423" style="stroke: #000000; stroke-width: 0.8"/>
      </g>
     </g>
     <g id="text_14">
      <!-- 1.6 -->
      <g transform="translate(21.679687 154.012298) scale(0.1 -0.1)">
       <use xlink:href="#MicrosoftYaHei-31"/>
       <use xlink:href="#MicrosoftYaHei-2e" transform="translate(58.642578 0)"/>
       <use xlink:href="#MicrosoftYaHei-36" transform="translate(82.714844 0)"/>
      </g>
     </g>
    </g>
    <g id="ytick_6">
     <g id="line2d_27">
      <path d="M 42.815625 121.107692 
L 444.575625 121.107692 
" clip-path="url(#p8389ececdb)" style="fill: none; stroke: #b0b0b0; stroke-opacity: 0.25; stroke-width: 0.8; stroke-linecap: square"/>
     </g>
     <g id="line2d_28">
      <g>
       <use xlink:href="#m7f890e1f84" x="42.815625" y="121.107692" style="stroke: #000000; stroke-width: 0.8"/>
      </g>
     </g>
     <g id="text_15">
      <!-- 1.7 -->
      <g transform="translate(21.679687 125.104567) scale(0.1 -0.1)">
       <use xlink:href="#MicrosoftYaHei-31"/>
       <use xlink:href="#MicrosoftYaHei-2e" transform="translate(58.642578 0)"/>
       <use xlink:href="#MicrosoftYaHei-37" transform="translate(82.714844 0)"/>
      </g>
     </g>
    </g>
    <g id="ytick_7">
     <g id="line2d_29">
      <path d="M 42.815625 92.199961 
L 444.575625 92.199961 
" clip-path="url(#p8389ececdb)" style="fill: none; stroke: #b0b0b0; stroke-opacity: 0.25; stroke-width: 0.8; stroke-linecap: square"/>
     </g>
     <g id="line2d_30">
      <g>
       <use xlink:href="#m7f890e1f84" x="42.815625" y="92.199961" style="stroke: #000000; stroke-width: 0.8"/>
      </g>
     </g>
     <g id="text_16">
      <!-- 1.8 -->
      <g transform="translate(21.679687 96.196836) scale(0.1 -0.1)">
       <defs>
        <path id="MicrosoftYaHei-38" d="M 306 1350 
Q 306 1769 556 2122 
Q 806 2475 1200 2625 
Q 884 2803 700 3081 
Q 516 3359 516 3684 
Q 516 4028 692 4312 
Q 869 4597 1183 4759 
Q 1497 4922 1875 4922 
Q 2256 4922 2572 4761 
Q 2888 4600 3063 4315 
Q 3238 4031 3238 3684 
Q 3238 3366 3058 3086 
Q 2878 2806 2559 2625 
Q 2953 2472 3200 2119 
Q 3447 1766 3447 1350 
Q 3447 938 3250 611 
Q 3053 284 2690 103 
Q 2328 -78 1875 -78 
Q 1425 -78 1065 103 
Q 706 284 506 612 
Q 306 941 306 1350 
z
M 906 1378 
Q 906 947 1172 687 
Q 1438 428 1878 428 
Q 2309 428 2582 692 
Q 2856 956 2856 1378 
Q 2856 1778 2579 2051 
Q 2303 2325 1878 2325 
Q 1456 2325 1181 2058 
Q 906 1791 906 1378 
z
M 1081 3634 
Q 1081 3309 1312 3076 
Q 1544 2844 1878 2844 
Q 2206 2844 2445 3078 
Q 2684 3313 2684 3634 
Q 2684 3963 2454 4191 
Q 2225 4419 1878 4419 
Q 1534 4419 1307 4195 
Q 1081 3972 1081 3634 
z
" transform="scale(0.015625)"/>
       </defs>
       <use xlink:href="#MicrosoftYaHei-31"/>
       <use xlink:href="#MicrosoftYaHei-2e" transform="translate(58.642578 0)"/>
       <use xlink:href="#MicrosoftYaHei-38" transform="translate(82.714844 0)"/>
      </g>
     </g>
    </g>
    <g id="ytick_8">
     <g id="line2d_31">
      <path d="M 42.815625 63.292231 
L 444.575625 63.292231 
" clip-path="url(#p8389ececdb)" style="fill: none; stroke: #b0b0b0; stroke-opacity: 0.25; stroke-width: 0.8; stroke-linecap: square"/>
     </g>
     <g id="line2d_32">
      <g>
       <use xlink:href="#m7f890e1f84" x="42.815625" y="63.292231" style="stroke: #000000; stroke-width: 0.8"/>
      </g>
     </g>
     <g id="text_17">
      <!-- 1.9 -->
      <g transform="translate(21.679687 67.289106) scale(0.1 -0.1)">
       <defs>
        <path id="MicrosoftYaHei-39" d="M 578 656 
Q 978 425 1441 425 
Q 2091 425 2448 937 
Q 2806 1450 2806 2394 
Q 2800 2388 2794 2394 
Q 2475 1788 1722 1788 
Q 1113 1788 713 2206 
Q 313 2625 313 3294 
Q 313 4006 750 4464 
Q 1188 4922 1884 4922 
Q 2606 4922 3012 4355 
Q 3419 3788 3419 2703 
Q 3419 1363 2894 641 
Q 2369 -81 1441 -81 
Q 931 -81 578 84 
L 578 656 
z
M 931 3372 
Q 931 2884 1181 2598 
Q 1431 2313 1872 2313 
Q 2253 2313 2512 2573 
Q 2772 2834 2772 3206 
Q 2772 3728 2514 4070 
Q 2256 4413 1834 4413 
Q 1444 4413 1187 4116 
Q 931 3819 931 3372 
z
" transform="scale(0.015625)"/>
       </defs>
       <use xlink:href="#MicrosoftYaHei-31"/>
       <use xlink:href="#MicrosoftYaHei-2e" transform="translate(58.642578 0)"/>
       <use xlink:href="#MicrosoftYaHei-39" transform="translate(82.714844 0)"/>
      </g>
     </g>
    </g>
    <g id="ytick_9">
     <g id="line2d_33">
      <path d="M 42.815625 34.3845 
L 444.575625 34.3845 
" clip-path="url(#p8389ececdb)" style="fill: none; stroke: #b0b0b0; stroke-opacity: 0.25; stroke-width: 0.8; stroke-linecap: square"/>
     </g>
     <g id="line2d_34">
      <g>
       <use xlink:href="#m7f890e1f84" x="42.815625" y="34.3845" style="stroke: #000000; stroke-width: 0.8"/>
      </g>
     </g>
     <g id="text_18">
      <!-- 2.0 -->
      <g transform="translate(21.679687 38.381375) scale(0.1 -0.1)">
       <use xlink:href="#MicrosoftYaHei-32"/>
       <use xlink:href="#MicrosoftYaHei-2e" transform="translate(58.642578 0)"/>
       <use xlink:href="#MicrosoftYaHei-30" transform="translate(82.714844 0)"/>
      </g>
     </g>
    </g>
    <g id="text_19">
     <!-- 半径 R(t) (cm) -->
     <g transform="translate(15.19375 182.263875) rotate(-90) scale(0.1 -0.1)">
      <defs>
       <path id="MicrosoftYaHei-534a" d="M 125 1484 
L 2931 1484 
L 2931 2572 
L 381 2572 
L 381 3047 
L 2931 3047 
L 2931 5316 
L 3463 5316 
L 3463 3047 
L 6025 3047 
L 6025 2572 
L 3463 2572 
L 3463 1484 
L 6275 1484 
L 6275 1009 
L 3463 1009 
L 3463 -822 
L 2931 -822 
L 2931 1009 
L 125 1009 
L 125 1484 
z
M 4200 3709 
Q 4750 4222 5363 4959 
L 5800 4609 
Q 5194 3928 4575 3359 
L 4200 3709 
z
M 600 4641 
L 969 4947 
Q 1550 4397 2156 3728 
L 1725 3359 
Q 1081 4159 600 4641 
z
" transform="scale(0.015625)"/>
       <path id="MicrosoftYaHei-5f84" d="M 2388 4466 
L 2388 4891 
L 5738 4891 
L 5738 4459 
Q 5216 3866 4619 3391 
Q 5559 2888 6338 2428 
L 6038 1972 
Q 5256 2494 4216 3091 
Q 3253 2422 2106 2041 
Q 2000 2247 1850 2459 
Q 3894 3153 5025 4466 
L 2388 4466 
z
M 1931 -66 
L 3881 -66 
L 3881 1403 
L 2288 1403 
L 2288 1828 
L 5950 1828 
L 5950 1403 
L 4344 1403 
L 4344 -66 
L 6300 -66 
L 6300 -491 
L 1931 -491 
L 1931 -66 
z
M 38 1572 
Q 975 2353 1750 3809 
L 2175 3541 
Q 1844 2953 1475 2444 
L 1475 -816 
L 994 -816 
L 994 1831 
Q 638 1419 250 1066 
Q 156 1328 38 1572 
z
M 106 3616 
Q 1038 4359 1638 5391 
L 2063 5116 
Q 1356 3997 344 3134 
Q 238 3359 106 3616 
z
" transform="scale(0.015625)"/>
       <path id="MicrosoftYaHei-52" d="M 4159 0 
L 3422 0 
L 2619 1344 
Q 2378 1747 2178 1892 
Q 1978 2038 1700 2038 
L 1250 2038 
L 1250 0 
L 625 0 
L 625 4841 
L 2100 4841 
Q 2806 4841 3206 4500 
Q 3606 4159 3606 3547 
Q 3606 2541 2531 2241 
L 2531 2225 
Q 2731 2141 2876 1984 
Q 3022 1828 3253 1450 
L 4159 0 
z
M 1250 4294 
L 1250 2584 
L 1988 2584 
Q 2416 2584 2683 2834 
Q 2950 3084 2950 3491 
Q 2950 3869 2706 4081 
Q 2463 4294 1997 4294 
L 1250 4294 
z
" transform="scale(0.015625)"/>
       <path id="MicrosoftYaHei-63" d="M 2934 156 
Q 2538 -81 1978 -81 
Q 1228 -81 772 400 
Q 316 881 316 1647 
Q 316 2497 808 3017 
Q 1300 3538 2125 3538 
Q 2600 3538 2938 3369 
L 2938 2763 
Q 2572 3031 2125 3031 
Q 1600 3031 1270 2667 
Q 941 2303 941 1697 
Q 941 1100 1252 762 
Q 1563 425 2091 425 
Q 2538 425 2934 719 
L 2934 156 
z
" transform="scale(0.015625)"/>
       <path id="MicrosoftYaHei-6d" d="M 5522 0 
L 4909 0 
L 4909 1984 
Q 4909 2547 4734 2789 
Q 4559 3031 4159 3031 
Q 3822 3031 3581 2715 
Q 3341 2400 3341 1969 
L 3341 0 
L 2728 0 
L 2728 2047 
Q 2728 3031 1969 3031 
Q 1619 3031 1389 2731 
Q 1159 2431 1159 1966 
L 1159 0 
L 547 0 
L 547 3456 
L 1159 3456 
L 1159 2909 
L 1172 2909 
Q 1541 3538 2250 3538 
Q 2597 3538 2862 3347 
Q 3128 3156 3231 2831 
Q 3616 3538 4381 3538 
Q 5522 3538 5522 2131 
L 5522 0 
z
" transform="scale(0.015625)"/>
      </defs>
      <use xlink:href="#MicrosoftYaHei-534a"/>
      <use xlink:href="#MicrosoftYaHei-5f84" transform="translate(100 0)"/>
      <use xlink:href="#MicrosoftYaHei-20" transform="translate(200 0)"/>
      <use xlink:href="#MicrosoftYaHei-52" transform="translate(229.589844 0)"/>
      <use xlink:href="#MicrosoftYaHei-28" transform="translate(294.873047 0)"/>
      <use xlink:href="#MicrosoftYaHei-74" transform="translate(328.271484 0)"/>
      <use xlink:href="#MicrosoftYaHei-29" transform="translate(365.527344 0)"/>
      <use xlink:href="#MicrosoftYaHei-20" transform="translate(398.925781 0)"/>
      <use xlink:href="#MicrosoftYaHei-28" transform="translate(428.515625 0)"/>
      <use xlink:href="#MicrosoftYaHei-63" transform="translate(461.914062 0)"/>
      <use xlink:href="#MicrosoftYaHei-6d" transform="translate(512.060547 0)"/>
      <use xlink:href="#MicrosoftYaHei-29" transform="translate(605.761719 0)"/>
     </g>
    </g>
   </g>
   <g id="line2d_35">
    <path d="M 61.077443 34.3845 
L 62.539851 57.473587 
L 63.636657 71.350007 
L 64.733463 81.735967 
L 66.195871 94.37679 
L 70.948696 141.083336 
L 71.6799 145.124098 
L 72.776706 149.495574 
L 74.239114 155.180945 
L 76.432726 164.514276 
L 79.723143 179.589716 
L 82.647959 190.14276 
L 84.110367 194.84025 
L 85.938377 199.535137 
L 87.035183 202.661716 
L 89.594396 210.425786 
L 91.422406 215.135115 
L 92.884814 218.213068 
L 94.712824 221.987829 
L 96.906436 226.67914 
L 98.734446 230.084729 
L 99.831252 231.557327 
L 102.024863 234.037831 
L 104.218475 237.052598 
L 105.315281 238.084309 
L 106.777689 239.386918 
L 108.605699 241.505436 
L 110.068107 243.008766 
L 112.62732 245.231023 
L 114.820932 246.908107 
L 117.745748 248.997398 
L 119.573758 250.430333 
L 121.401768 251.488277 
L 123.960981 252.691722 
L 130.907419 255.698578 
L 132.735428 256.383037 
L 135.294642 257.507342 
L 140.41307 259.175808 
L 145.531497 260.247979 
L 148.090711 260.59164 
L 153.209139 261.707285 
L 174.048451 263.911882 
L 176.242062 264.015892 
L 177.70447 264.200681 
L 181.36049 264.312552 
L 182.822898 264.490036 
L 186.113315 264.551495 
L 187.941325 264.779113 
L 196.35017 264.854059 
L 198.17818 265.068191 
L 209.146239 265.161032 
L 210.974249 265.357268 
L 236.931989 265.432214 
L 238.759998 265.646345 
L 353.559016 265.714444 
L 355.387025 265.935423 
L 399.259261 266.010369 
L 401.087271 266.2245 
L 426.313807 266.2245 
L 426.313807 266.2245 
" clip-path="url(#p8389ececdb)" style="fill: none; stroke: #1f77b4; stroke-width: 1.6; stroke-linecap: square"/>
   </g>
   <g id="line2d_36">
    <defs>
     <path id="md5e2385d80" d="M 0 1.25 
C 0.331504 1.25 0.649475 1.118292 0.883883 0.883883 
C 1.118292 0.649475 1.25 0.331504 1.25 0 
C 1.25 -0.331504 1.118292 -0.649475 0.883883 -0.883883 
C 0.649475 -1.118292 0.331504 -1.25 0 -1.25 
C -0.331504 -1.25 -0.649475 -1.118292 -0.883883 -0.883883 
C -1.118292 -0.649475 -1.25 -0.331504 -1.25 0 
C -1.25 0.331504 -1.118292 0.649475 -0.883883 0.883883 
C -0.649475 1.118292 -0.331504 1.25 0 1.25 
z
" style="stroke: #ff7f0e"/>
    </defs>
    <g clip-path="url(#p8389ececdb)">
     <use xlink:href="#md5e2385d80" x="61.077443" y="34.3845" style="fill: #ff7f0e; stroke: #ff7f0e"/>
     <use xlink:href="#md5e2385d80" x="63.613807" y="71.097318" style="fill: #ff7f0e; stroke: #ff7f0e"/>
     <use xlink:href="#md5e2385d80" x="66.15017" y="93.934425" style="fill: #ff7f0e; stroke: #ff7f0e"/>
     <use xlink:href="#md5e2385d80" x="68.686534" y="120.24046" style="fill: #ff7f0e; stroke: #ff7f0e"/>
     <use xlink:href="#md5e2385d80" x="71.222898" y="142.78849" style="fill: #ff7f0e; stroke: #ff7f0e"/>
     <use xlink:href="#md5e2385d80" x="73.759261" y="153.195273" style="fill: #ff7f0e; stroke: #ff7f0e"/>
     <use xlink:href="#md5e2385d80" x="76.295625" y="163.891133" style="fill: #ff7f0e; stroke: #ff7f0e"/>
     <use xlink:href="#md5e2385d80" x="78.831989" y="176.03238" style="fill: #ff7f0e; stroke: #ff7f0e"/>
     <use xlink:href="#md5e2385d80" x="81.368352" y="185.571931" style="fill: #ff7f0e; stroke: #ff7f0e"/>
     <use xlink:href="#md5e2385d80" x="83.904716" y="194.244251" style="fill: #ff7f0e; stroke: #ff7f0e"/>
     <use xlink:href="#md5e2385d80" x="86.44108" y="200.893029" style="fill: #ff7f0e; stroke: #ff7f0e"/>
     <use xlink:href="#md5e2385d80" x="88.977443" y="208.698116" style="fill: #ff7f0e; stroke: #ff7f0e"/>
     <use xlink:href="#md5e2385d80" x="91.513807" y="215.346894" style="fill: #ff7f0e; stroke: #ff7f0e"/>
     <use xlink:href="#md5e2385d80" x="94.05017" y="220.550286" style="fill: #ff7f0e; stroke: #ff7f0e"/>
     <use xlink:href="#md5e2385d80" x="96.586534" y="226.042754" style="fill: #ff7f0e; stroke: #ff7f0e"/>
     <use xlink:href="#md5e2385d80" x="99.122898" y="230.667991" style="fill: #ff7f0e; stroke: #ff7f0e"/>
     <use xlink:href="#md5e2385d80" x="101.659261" y="233.558764" style="fill: #ff7f0e; stroke: #ff7f0e"/>
     <use xlink:href="#md5e2385d80" x="104.195625" y="237.027692" style="fill: #ff7f0e; stroke: #ff7f0e"/>
     <use xlink:href="#md5e2385d80" x="106.731989" y="239.34031" style="fill: #ff7f0e; stroke: #ff7f0e"/>
     <use xlink:href="#md5e2385d80" x="109.268352" y="242.231084" style="fill: #ff7f0e; stroke: #ff7f0e"/>
     <use xlink:href="#md5e2385d80" x="111.804716" y="244.543702" style="fill: #ff7f0e; stroke: #ff7f0e"/>
     <use xlink:href="#md5e2385d80" x="114.34108" y="246.567243" style="fill: #ff7f0e; stroke: #ff7f0e"/>
     <use xlink:href="#md5e2385d80" x="116.877443" y="248.301707" style="fill: #ff7f0e; stroke: #ff7f0e"/>
     <use xlink:href="#md5e2385d80" x="119.413807" y="250.325248" style="fill: #ff7f0e; stroke: #ff7f0e"/>
     <use xlink:href="#md5e2385d80" x="121.95017" y="251.770635" style="fill: #ff7f0e; stroke: #ff7f0e"/>
     <use xlink:href="#md5e2385d80" x="124.486534" y="252.926944" style="fill: #ff7f0e; stroke: #ff7f0e"/>
     <use xlink:href="#md5e2385d80" x="127.022898" y="254.083253" style="fill: #ff7f0e; stroke: #ff7f0e"/>
     <use xlink:href="#md5e2385d80" x="129.559261" y="255.239562" style="fill: #ff7f0e; stroke: #ff7f0e"/>
     <use xlink:href="#md5e2385d80" x="132.095625" y="256.106794" style="fill: #ff7f0e; stroke: #ff7f0e"/>
     <use xlink:href="#md5e2385d80" x="134.631989" y="257.263103" style="fill: #ff7f0e; stroke: #ff7f0e"/>
     <use xlink:href="#md5e2385d80" x="137.168352" y="258.130335" style="fill: #ff7f0e; stroke: #ff7f0e"/>
     <use xlink:href="#md5e2385d80" x="139.704716" y="258.997567" style="fill: #ff7f0e; stroke: #ff7f0e"/>
     <use xlink:href="#md5e2385d80" x="142.24108" y="259.575722" style="fill: #ff7f0e; stroke: #ff7f0e"/>
     <use xlink:href="#md5e2385d80" x="144.777443" y="260.153877" style="fill: #ff7f0e; stroke: #ff7f0e"/>
     <use xlink:href="#md5e2385d80" x="147.313807" y="260.442954" style="fill: #ff7f0e; stroke: #ff7f0e"/>
     <use xlink:href="#md5e2385d80" x="149.85017" y="261.021108" style="fill: #ff7f0e; stroke: #ff7f0e"/>
     <use xlink:href="#md5e2385d80" x="152.386534" y="261.599263" style="fill: #ff7f0e; stroke: #ff7f0e"/>
     <use xlink:href="#md5e2385d80" x="154.922898" y="261.88834" style="fill: #ff7f0e; stroke: #ff7f0e"/>
     <use xlink:href="#md5e2385d80" x="157.459261" y="262.177418" style="fill: #ff7f0e; stroke: #ff7f0e"/>
     <use xlink:href="#md5e2385d80" x="159.995625" y="262.466495" style="fill: #ff7f0e; stroke: #ff7f0e"/>
     <use xlink:href="#md5e2385d80" x="162.531989" y="262.755572" style="fill: #ff7f0e; stroke: #ff7f0e"/>
     <use xlink:href="#md5e2385d80" x="165.068352" y="263.04465" style="fill: #ff7f0e; stroke: #ff7f0e"/>
     <use xlink:href="#md5e2385d80" x="167.604716" y="263.333727" style="fill: #ff7f0e; stroke: #ff7f0e"/>
     <use xlink:href="#md5e2385d80" x="170.14108" y="263.622804" style="fill: #ff7f0e; stroke: #ff7f0e"/>
     <use xlink:href="#md5e2385d80" x="172.677443" y="263.911882" style="fill: #ff7f0e; stroke: #ff7f0e"/>
     <use xlink:href="#md5e2385d80" x="175.213807" y="263.911882" style="fill: #ff7f0e; stroke: #ff7f0e"/>
     <use xlink:href="#md5e2385d80" x="177.75017" y="264.200959" style="fill: #ff7f0e; stroke: #ff7f0e"/>
     <use xlink:href="#md5e2385d80" x="180.286534" y="264.200959" style="fill: #ff7f0e; stroke: #ff7f0e"/>
     <use xlink:href="#md5e2385d80" x="182.822898" y="264.490036" style="fill: #ff7f0e; stroke: #ff7f0e"/>
     <use xlink:href="#md5e2385d80" x="185.359261" y="264.490036" style="fill: #ff7f0e; stroke: #ff7f0e"/>
     <use xlink:href="#md5e2385d80" x="187.895625" y="264.779113" style="fill: #ff7f0e; stroke: #ff7f0e"/>
     <use xlink:href="#md5e2385d80" x="190.431989" y="264.779113" style="fill: #ff7f0e; stroke: #ff7f0e"/>
     <use xlink:href="#md5e2385d80" x="192.968352" y="264.779113" style="fill: #ff7f0e; stroke: #ff7f0e"/>
     <use xlink:href="#md5e2385d80" x="195.504716" y="264.779113" style="fill: #ff7f0e; stroke: #ff7f0e"/>
     <use xlink:href="#md5e2385d80" x="198.04108" y="265.068191" style="fill: #ff7f0e; stroke: #ff7f0e"/>
     <use xlink:href="#md5e2385d80" x="200.577443" y="265.068191" style="fill: #ff7f0e; stroke: #ff7f0e"/>
     <use xlink:href="#md5e2385d80" x="203.113807" y="265.068191" style="fill: #ff7f0e; stroke: #ff7f0e"/>
     <use xlink:href="#md5e2385d80" x="205.65017" y="265.068191" style="fill: #ff7f0e; stroke: #ff7f0e"/>
     <use xlink:href="#md5e2385d80" x="208.186534" y="265.068191" style="fill: #ff7f0e; stroke: #ff7f0e"/>
     <use xlink:href="#md5e2385d80" x="210.722898" y="265.357268" style="fill: #ff7f0e; stroke: #ff7f0e"/>
     <use xlink:href="#md5e2385d80" x="213.259261" y="265.357268" style="fill: #ff7f0e; stroke: #ff7f0e"/>
     <use xlink:href="#md5e2385d80" x="215.795625" y="265.357268" style="fill: #ff7f0e; stroke: #ff7f0e"/>
     <use xlink:href="#md5e2385d80" x="218.331989" y="265.357268" style="fill: #ff7f0e; stroke: #ff7f0e"/>
     <use xlink:href="#md5e2385d80" x="220.868352" y="265.357268" style="fill: #ff7f0e; stroke: #ff7f0e"/>
     <use xlink:href="#md5e2385d80" x="223.404716" y="265.357268" style="fill: #ff7f0e; stroke: #ff7f0e"/>
     <use xlink:href="#md5e2385d80" x="225.94108" y="265.357268" style="fill: #ff7f0e; stroke: #ff7f0e"/>
     <use xlink:href="#md5e2385d80" x="228.477443" y="265.357268" style="fill: #ff7f0e; stroke: #ff7f0e"/>
     <use xlink:href="#md5e2385d80" x="231.013807" y="265.357268" style="fill: #ff7f0e; stroke: #ff7f0e"/>
     <use xlink:href="#md5e2385d80" x="233.55017" y="265.357268" style="fill: #ff7f0e; stroke: #ff7f0e"/>
     <use xlink:href="#md5e2385d80" x="236.086534" y="265.357268" style="fill: #ff7f0e; stroke: #ff7f0e"/>
     <use xlink:href="#md5e2385d80" x="238.622898" y="265.646345" style="fill: #ff7f0e; stroke: #ff7f0e"/>
     <use xlink:href="#md5e2385d80" x="241.159261" y="265.646345" style="fill: #ff7f0e; stroke: #ff7f0e"/>
     <use xlink:href="#md5e2385d80" x="243.695625" y="265.646345" style="fill: #ff7f0e; stroke: #ff7f0e"/>
     <use xlink:href="#md5e2385d80" x="246.231989" y="265.646345" style="fill: #ff7f0e; stroke: #ff7f0e"/>
     <use xlink:href="#md5e2385d80" x="248.768352" y="265.646345" style="fill: #ff7f0e; stroke: #ff7f0e"/>
     <use xlink:href="#md5e2385d80" x="251.304716" y="265.646345" style="fill: #ff7f0e; stroke: #ff7f0e"/>
     <use xlink:href="#md5e2385d80" x="253.84108" y="265.646345" style="fill: #ff7f0e; stroke: #ff7f0e"/>
     <use xlink:href="#md5e2385d80" x="256.377443" y="265.646345" style="fill: #ff7f0e; stroke: #ff7f0e"/>
     <use xlink:href="#md5e2385d80" x="258.913807" y="265.646345" style="fill: #ff7f0e; stroke: #ff7f0e"/>
     <use xlink:href="#md5e2385d80" x="261.45017" y="265.646345" style="fill: #ff7f0e; stroke: #ff7f0e"/>
     <use xlink:href="#md5e2385d80" x="263.986534" y="265.646345" style="fill: #ff7f0e; stroke: #ff7f0e"/>
     <use xlink:href="#md5e2385d80" x="266.522898" y="265.646345" style="fill: #ff7f0e; stroke: #ff7f0e"/>
     <use xlink:href="#md5e2385d80" x="269.059261" y="265.646345" style="fill: #ff7f0e; stroke: #ff7f0e"/>
     <use xlink:href="#md5e2385d80" x="271.595625" y="265.646345" style="fill: #ff7f0e; stroke: #ff7f0e"/>
     <use xlink:href="#md5e2385d80" x="274.131989" y="265.646345" style="fill: #ff7f0e; stroke: #ff7f0e"/>
     <use xlink:href="#md5e2385d80" x="276.668352" y="265.646345" style="fill: #ff7f0e; stroke: #ff7f0e"/>
     <use xlink:href="#md5e2385d80" x="279.204716" y="265.646345" style="fill: #ff7f0e; stroke: #ff7f0e"/>
     <use xlink:href="#md5e2385d80" x="281.74108" y="265.646345" style="fill: #ff7f0e; stroke: #ff7f0e"/>
     <use xlink:href="#md5e2385d80" x="284.277443" y="265.646345" style="fill: #ff7f0e; stroke: #ff7f0e"/>
     <use xlink:href="#md5e2385d80" x="286.813807" y="265.646345" style="fill: #ff7f0e; stroke: #ff7f0e"/>
     <use xlink:href="#md5e2385d80" x="289.35017" y="265.646345" style="fill: #ff7f0e; stroke: #ff7f0e"/>
     <use xlink:href="#md5e2385d80" x="291.886534" y="265.646345" style="fill: #ff7f0e; stroke: #ff7f0e"/>
     <use xlink:href="#md5e2385d80" x="294.422898" y="265.646345" style="fill: #ff7f0e; stroke: #ff7f0e"/>
     <use xlink:href="#md5e2385d80" x="296.959261" y="265.646345" style="fill: #ff7f0e; stroke: #ff7f0e"/>
     <use xlink:href="#md5e2385d80" x="299.495625" y="265.646345" style="fill: #ff7f0e; stroke: #ff7f0e"/>
     <use xlink:href="#md5e2385d80" x="302.031989" y="265.646345" style="fill: #ff7f0e; stroke: #ff7f0e"/>
     <use xlink:href="#md5e2385d80" x="304.568352" y="265.646345" style="fill: #ff7f0e; stroke: #ff7f0e"/>
     <use xlink:href="#md5e2385d80" x="307.104716" y="265.646345" style="fill: #ff7f0e; stroke: #ff7f0e"/>
     <use xlink:href="#md5e2385d80" x="309.64108" y="265.646345" style="fill: #ff7f0e; stroke: #ff7f0e"/>
     <use xlink:href="#md5e2385d80" x="312.177443" y="265.646345" style="fill: #ff7f0e; stroke: #ff7f0e"/>
     <use xlink:href="#md5e2385d80" x="314.713807" y="265.646345" style="fill: #ff7f0e; stroke: #ff7f0e"/>
     <use xlink:href="#md5e2385d80" x="317.25017" y="265.646345" style="fill: #ff7f0e; stroke: #ff7f0e"/>
     <use xlink:href="#md5e2385d80" x="319.786534" y="265.646345" style="fill: #ff7f0e; stroke: #ff7f0e"/>
     <use xlink:href="#md5e2385d80" x="322.322898" y="265.646345" style="fill: #ff7f0e; stroke: #ff7f0e"/>
     <use xlink:href="#md5e2385d80" x="324.859261" y="265.646345" style="fill: #ff7f0e; stroke: #ff7f0e"/>
     <use xlink:href="#md5e2385d80" x="327.395625" y="265.646345" style="fill: #ff7f0e; stroke: #ff7f0e"/>
     <use xlink:href="#md5e2385d80" x="329.931989" y="265.646345" style="fill: #ff7f0e; stroke: #ff7f0e"/>
     <use xlink:href="#md5e2385d80" x="332.468352" y="265.646345" style="fill: #ff7f0e; stroke: #ff7f0e"/>
     <use xlink:href="#md5e2385d80" x="335.004716" y="265.646345" style="fill: #ff7f0e; stroke: #ff7f0e"/>
     <use xlink:href="#md5e2385d80" x="337.54108" y="265.646345" style="fill: #ff7f0e; stroke: #ff7f0e"/>
     <use xlink:href="#md5e2385d80" x="340.077443" y="265.646345" style="fill: #ff7f0e; stroke: #ff7f0e"/>
     <use xlink:href="#md5e2385d80" x="342.613807" y="265.646345" style="fill: #ff7f0e; stroke: #ff7f0e"/>
     <use xlink:href="#md5e2385d80" x="345.15017" y="265.646345" style="fill: #ff7f0e; stroke: #ff7f0e"/>
     <use xlink:href="#md5e2385d80" x="347.686534" y="265.646345" style="fill: #ff7f0e; stroke: #ff7f0e"/>
     <use xlink:href="#md5e2385d80" x="350.222898" y="265.646345" style="fill: #ff7f0e; stroke: #ff7f0e"/>
     <use xlink:href="#md5e2385d80" x="352.759261" y="265.646345" style="fill: #ff7f0e; stroke: #ff7f0e"/>
     <use xlink:href="#md5e2385d80" x="355.295625" y="265.935423" style="fill: #ff7f0e; stroke: #ff7f0e"/>
     <use xlink:href="#md5e2385d80" x="357.831989" y="265.935423" style="fill: #ff7f0e; stroke: #ff7f0e"/>
     <use xlink:href="#md5e2385d80" x="360.368352" y="265.935423" style="fill: #ff7f0e; stroke: #ff7f0e"/>
     <use xlink:href="#md5e2385d80" x="362.904716" y="265.935423" style="fill: #ff7f0e; stroke: #ff7f0e"/>
     <use xlink:href="#md5e2385d80" x="365.44108" y="265.935423" style="fill: #ff7f0e; stroke: #ff7f0e"/>
     <use xlink:href="#md5e2385d80" x="367.977443" y="265.935423" style="fill: #ff7f0e; stroke: #ff7f0e"/>
     <use xlink:href="#md5e2385d80" x="370.513807" y="265.935423" style="fill: #ff7f0e; stroke: #ff7f0e"/>
     <use xlink:href="#md5e2385d80" x="373.05017" y="265.935423" style="fill: #ff7f0e; stroke: #ff7f0e"/>
     <use xlink:href="#md5e2385d80" x="375.586534" y="265.935423" style="fill: #ff7f0e; stroke: #ff7f0e"/>
     <use xlink:href="#md5e2385d80" x="378.122898" y="265.935423" style="fill: #ff7f0e; stroke: #ff7f0e"/>
     <use xlink:href="#md5e2385d80" x="380.659261" y="265.935423" style="fill: #ff7f0e; stroke: #ff7f0e"/>
     <use xlink:href="#md5e2385d80" x="383.195625" y="265.935423" style="fill: #ff7f0e; stroke: #ff7f0e"/>
     <use xlink:href="#md5e2385d80" x="385.731989" y="265.935423" style="fill: #ff7f0e; stroke: #ff7f0e"/>
     <use xlink:href="#md5e2385d80" x="388.268352" y="265.935423" style="fill: #ff7f0e; stroke: #ff7f0e"/>
     <use xlink:href="#md5e2385d80" x="390.804716" y="265.935423" style="fill: #ff7f0e; stroke: #ff7f0e"/>
     <use xlink:href="#md5e2385d80" x="393.34108" y="265.935423" style="fill: #ff7f0e; stroke: #ff7f0e"/>
     <use xlink:href="#md5e2385d80" x="395.877443" y="265.935423" style="fill: #ff7f0e; stroke: #ff7f0e"/>
     <use xlink:href="#md5e2385d80" x="398.413807" y="265.935423" style="fill: #ff7f0e; stroke: #ff7f0e"/>
     <use xlink:href="#md5e2385d80" x="400.95017" y="266.2245" style="fill: #ff7f0e; stroke: #ff7f0e"/>
     <use xlink:href="#md5e2385d80" x="403.486534" y="266.2245" style="fill: #ff7f0e; stroke: #ff7f0e"/>
     <use xlink:href="#md5e2385d80" x="406.022898" y="266.2245" style="fill: #ff7f0e; stroke: #ff7f0e"/>
     <use xlink:href="#md5e2385d80" x="408.559261" y="266.2245" style="fill: #ff7f0e; stroke: #ff7f0e"/>
     <use xlink:href="#md5e2385d80" x="411.095625" y="266.2245" style="fill: #ff7f0e; stroke: #ff7f0e"/>
     <use xlink:href="#md5e2385d80" x="413.631989" y="266.2245" style="fill: #ff7f0e; stroke: #ff7f0e"/>
     <use xlink:href="#md5e2385d80" x="416.168352" y="266.2245" style="fill: #ff7f0e; stroke: #ff7f0e"/>
     <use xlink:href="#md5e2385d80" x="418.704716" y="266.2245" style="fill: #ff7f0e; stroke: #ff7f0e"/>
     <use xlink:href="#md5e2385d80" x="421.24108" y="266.2245" style="fill: #ff7f0e; stroke: #ff7f0e"/>
     <use xlink:href="#md5e2385d80" x="423.777443" y="266.2245" style="fill: #ff7f0e; stroke: #ff7f0e"/>
     <use xlink:href="#md5e2385d80" x="426.313807" y="266.2245" style="fill: #ff7f0e; stroke: #ff7f0e"/>
    </g>
   </g>
   <g id="line2d_37">
    <path d="M 330.351522 277.8165 
L 330.351522 22.7925 
" clip-path="url(#p8389ececdb)" style="fill: none; stroke-dasharray: 1.5,2.475; stroke-dashoffset: 0; stroke: #b22222; stroke-width: 1.5"/>
   </g>
   <g id="patch_3">
    <path d="M 42.815625 277.8165 
L 42.815625 22.7925 
" style="fill: none; stroke: #000000; stroke-width: 0.8; stroke-linejoin: miter; stroke-linecap: square"/>
   </g>
   <g id="patch_4">
    <path d="M 444.575625 277.8165 
L 444.575625 22.7925 
" style="fill: none; stroke: #000000; stroke-width: 0.8; stroke-linejoin: miter; stroke-linecap: square"/>
   </g>
   <g id="patch_5">
    <path d="M 42.815625 277.8165 
L 444.575625 277.8165 
" style="fill: none; stroke: #000000; stroke-width: 0.8; stroke-linejoin: miter; stroke-linecap: square"/>
   </g>
   <g id="patch_6">
    <path d="M 42.815625 22.7925 
L 444.575625 22.7925 
" style="fill: none; stroke: #000000; stroke-width: 0.8; stroke-linejoin: miter; stroke-linecap: square"/>
   </g>
   <g id="text_20">
    <!-- Q4 药材半径及 PCHIP 插值 -->
    <g transform="translate(170.200312 16.7925) scale(0.12 -0.12)">
     <defs>
      <path id="MicrosoftYaHei-51" d="M 313 2363 
Q 313 3534 947 4228 
Q 1581 4922 2666 4922 
Q 3675 4922 4290 4244 
Q 4906 3566 4906 2478 
Q 4906 1300 4275 609 
Q 4125 447 3953 322 
L 5313 -653 
L 4284 -653 
L 3366 28 
Q 3009 -81 2588 -81 
Q 1556 -81 934 597 
Q 313 1275 313 2363 
z
M 969 2413 
Q 969 1534 1417 1004 
Q 1866 475 2588 475 
Q 3363 475 3805 983 
Q 4247 1491 4247 2403 
Q 4247 3341 3814 3850 
Q 3381 4359 2628 4359 
Q 1888 4359 1428 3821 
Q 969 3284 969 2413 
z
" transform="scale(0.015625)"/>
      <path id="MicrosoftYaHei-836f" d="M 2419 1909 
Q 3119 2847 3525 3828 
L 4006 3672 
Q 3894 3434 3781 3216 
L 5913 3216 
Q 5881 1297 5838 378 
Q 5806 -703 4731 -703 
Q 4169 -703 3656 -697 
Q 3613 -453 3544 -153 
Q 4119 -209 4706 -209 
Q 5269 -209 5325 384 
Q 5381 1103 5400 2766 
L 3544 2766 
Q 3206 2153 2875 1684 
Q 2669 1803 2419 1909 
z
M 3975 5303 
L 4456 5303 
L 4456 4666 
L 6244 4666 
L 6244 4216 
L 4456 4216 
L 4456 3791 
L 3975 3791 
L 3975 4216 
L 2469 4216 
L 2469 3759 
L 1988 3759 
L 1988 4216 
L 181 4216 
L 181 4666 
L 1988 4666 
L 1988 5303 
L 2469 5303 
L 2469 4666 
L 3975 4666 
L 3975 5303 
z
M 1119 1141 
Q 1875 1228 2550 1334 
Q 2506 1066 2494 891 
Q 1631 772 513 584 
L 375 1034 
Q 900 1453 1425 2084 
Q 756 2047 425 2016 
L 306 2428 
Q 850 3003 1350 3928 
L 1813 3716 
Q 1306 2984 875 2466 
Q 1263 2472 1744 2491 
Q 2000 2828 2256 3222 
L 2681 2984 
Q 2031 2084 1119 1141 
z
M 338 -66 
Q 1606 103 2725 309 
Q 2700 59 2688 -153 
Q 1356 -378 456 -566 
L 338 -66 
z
M 3275 1834 
L 3619 2134 
Q 4056 1672 4575 1059 
L 4181 728 
Q 3750 1316 3275 1834 
z
" transform="scale(0.015625)"/>
      <path id="MicrosoftYaHei-6750" d="M 2863 3997 
L 4925 3997 
L 4925 5278 
L 5419 5278 
L 5419 3997 
L 6306 3997 
L 6306 3541 
L 5419 3541 
L 5419 166 
Q 5419 -716 4600 -716 
Q 4244 -716 3625 -709 
Q 3594 -478 3525 -159 
Q 4144 -203 4450 -203 
Q 4925 -203 4925 191 
L 4925 3003 
Q 4138 1297 2588 59 
Q 2438 241 2219 478 
Q 3856 1716 4681 3541 
L 2863 3541 
L 2863 3997 
z
M 88 1309 
Q 819 2341 1138 3572 
L 188 3572 
L 188 4016 
L 1219 4016 
L 1219 5278 
L 1700 5278 
L 1700 4016 
L 2606 4016 
L 2606 3572 
L 1700 3572 
L 1700 2728 
L 1956 2959 
Q 2481 2472 2938 2003 
L 2563 1659 
Q 2144 2153 1700 2597 
L 1700 -834 
L 1219 -834 
L 1219 2578 
Q 838 1484 331 759 
Q 219 1028 88 1309 
z
" transform="scale(0.015625)"/>
      <path id="MicrosoftYaHei-53ca" d="M 1819 1397 
Q 1500 309 475 -791 
Q 325 -591 100 -353 
Q 1038 628 1325 1622 
Q 1606 2475 1656 4416 
L 388 4416 
L 388 4884 
L 4981 4884 
L 4981 4409 
L 4375 3191 
L 5531 3191 
L 5531 2747 
Q 5038 1500 4209 653 
Q 5138 -9 6306 -234 
Q 6088 -541 5981 -772 
Q 4622 -341 3816 294 
Q 2969 -397 1719 -866 
Q 1619 -684 1406 -409 
Q 2619 -6 3428 644 
Q 2575 1506 2084 2784 
Q 1991 1953 1819 1397 
z
M 3769 3128 
L 4413 4416 
L 2181 4416 
Q 2175 4069 2159 3750 
Q 2781 1956 3809 981 
Q 4591 1741 4963 2722 
L 3769 2722 
L 3769 3128 
z
" transform="scale(0.015625)"/>
      <path id="MicrosoftYaHei-50" d="M 1250 1809 
L 1250 0 
L 625 0 
L 625 4841 
L 2000 4841 
Q 2784 4841 3217 4462 
Q 3650 4084 3650 3381 
Q 3650 2669 3144 2226 
Q 2638 1784 1878 1809 
L 1250 1809 
z
M 1250 4291 
L 1250 2359 
L 1828 2359 
Q 2400 2359 2697 2617 
Q 2994 2875 2994 3356 
Q 2994 4291 1888 4291 
L 1250 4291 
z
" transform="scale(0.015625)"/>
      <path id="MicrosoftYaHei-43" d="M 3938 200 
Q 3403 -81 2597 -81 
Q 1556 -81 934 580 
Q 313 1241 313 2328 
Q 313 3497 1013 4209 
Q 1713 4922 2791 4922 
Q 3484 4922 3938 4725 
L 3938 4072 
Q 3419 4359 2797 4359 
Q 1988 4359 1478 3820 
Q 969 3281 969 2366 
Q 969 1497 1444 986 
Q 1919 475 2688 475 
Q 3406 475 3938 800 
L 3938 200 
z
" transform="scale(0.015625)"/>
      <path id="MicrosoftYaHei-48" d="M 4325 0 
L 3700 0 
L 3700 2181 
L 1250 2181 
L 1250 0 
L 625 0 
L 625 4841 
L 1250 4841 
L 1250 2738 
L 3700 2738 
L 3700 4841 
L 4325 4841 
L 4325 0 
z
" transform="scale(0.015625)"/>
      <path id="MicrosoftYaHei-49" d="M 1250 4841 
L 1250 0 
L 625 0 
L 625 4841 
L 1250 4841 
z
" transform="scale(0.015625)"/>
      <path id="MicrosoftYaHei-63d2" d="M 3694 2409 
Q 3188 2253 2663 2116 
L 2663 1291 
L 3669 1291 
L 3669 866 
L 2663 866 
L 2663 -66 
L 3894 -66 
L 3894 3266 
L 2081 3266 
L 2081 3716 
L 3894 3716 
L 3894 4453 
Q 3156 4413 2306 4378 
Q 2269 4591 2219 4822 
Q 4225 4872 6025 5053 
L 6113 4603 
Q 5347 4538 4356 4478 
L 4356 3716 
L 6319 3716 
L 6319 3266 
L 4356 3266 
L 4356 -66 
L 5588 -66 
L 5588 872 
L 4594 872 
L 4594 1297 
L 5588 1297 
L 5588 2153 
L 4575 2153 
L 4575 2578 
L 6038 2578 
L 6038 -841 
L 5588 -841 
L 5588 -491 
L 2663 -491 
L 2663 -859 
L 2219 -859 
L 2219 2441 
Q 2913 2609 3481 2847 
L 3694 2409 
z
M 88 1966 
Q 491 2138 875 2319 
L 875 3728 
L 131 3728 
L 131 4166 
L 875 4166 
L 875 5316 
L 1331 5316 
L 1331 4166 
L 2050 4166 
L 2050 3728 
L 1331 3728 
L 1331 2541 
Q 1669 2709 1994 2884 
Q 2013 2572 2044 2384 
Q 1688 2203 1331 2022 
L 1331 -103 
Q 1331 -741 788 -772 
Q 538 -784 231 -778 
Q 206 -534 156 -259 
Q 456 -284 650 -284 
Q 875 -284 875 -47 
L 875 1788 
Q 513 1603 150 1416 
L 88 1966 
z
" transform="scale(0.015625)"/>
      <path id="MicrosoftYaHei-503c" d="M 1619 -216 
L 2250 -216 
L 2250 3653 
L 3725 3653 
L 3725 4222 
L 1913 4222 
L 1913 4647 
L 3725 4647 
L 3725 5309 
L 4200 5309 
L 4200 4647 
L 6169 4647 
L 6169 4222 
L 4200 4222 
L 4200 3653 
L 5713 3653 
L 5713 -216 
L 6306 -216 
L 6306 -641 
L 1619 -641 
L 1619 -216 
z
M 69 2247 
Q 906 3497 1369 5278 
L 1831 5141 
Q 1581 4334 1288 3628 
L 1288 -816 
L 831 -816 
L 831 2666 
Q 563 2166 263 1734 
Q 175 1997 69 2247 
z
M 2713 -216 
L 5250 -216 
L 5250 353 
L 2713 353 
L 2713 -216 
z
M 5250 3241 
L 2713 3241 
L 2713 2678 
L 5250 2678 
L 5250 3241 
z
M 2713 1716 
L 5250 1716 
L 5250 2278 
L 2713 2278 
L 2713 1716 
z
M 2713 753 
L 5250 753 
L 5250 1316 
L 2713 1316 
L 2713 753 
z
" transform="scale(0.015625)"/>
     </defs>
     <use xlink:href="#MicrosoftYaHei-51"/>
     <use xlink:href="#MicrosoftYaHei-34" transform="translate(81.494141 0)"/>
     <use xlink:href="#MicrosoftYaHei-20" transform="translate(140.136719 0)"/>
     <use xlink:href="#MicrosoftYaHei-836f" transform="translate(169.726562 0)"/>
     <use xlink:href="#MicrosoftYaHei-6750" transform="translate(269.726562 0)"/>
     <use xlink:href="#MicrosoftYaHei-534a" transform="translate(369.726562 0)"/>
     <use xlink:href="#MicrosoftYaHei-5f84" transform="translate(469.726562 0)"/>
     <use xlink:href="#MicrosoftYaHei-53ca" transform="translate(569.726562 0)"/>
     <use xlink:href="#MicrosoftYaHei-20" transform="translate(669.726562 0)"/>
     <use xlink:href="#MicrosoftYaHei-50" transform="translate(699.316406 0)"/>
     <use xlink:href="#MicrosoftYaHei-43" transform="translate(760.498047 0)"/>
     <use xlink:href="#MicrosoftYaHei-48" transform="translate(827.392578 0)"/>
     <use xlink:href="#MicrosoftYaHei-49" transform="translate(904.736328 0)"/>
     <use xlink:href="#MicrosoftYaHei-50" transform="translate(934.130859 0)"/>
     <use xlink:href="#MicrosoftYaHei-20" transform="translate(995.3125 0)"/>
     <use xlink:href="#MicrosoftYaHei-63d2" transform="translate(1024.902344 0)"/>
     <use xlink:href="#MicrosoftYaHei-503c" transform="translate(1124.902344 0)"/>
    </g>
   </g>
   <g id="legend_1">
    <g id="line2d_38">
     <path d="M 358.081875 36.28625 
L 368.081875 36.28625 
L 378.081875 36.28625 
" style="fill: none; stroke: #1f77b4; stroke-width: 1.6; stroke-linecap: square"/>
    </g>
    <g id="text_21">
     <!-- PCHIP R(t) -->
     <g transform="translate(386.081875 39.78625) scale(0.1 -0.1)">
      <use xlink:href="#MicrosoftYaHei-50"/>
      <use xlink:href="#MicrosoftYaHei-43" transform="translate(61.181641 0)"/>
      <use xlink:href="#MicrosoftYaHei-48" transform="translate(128.076172 0)"/>
      <use xlink:href="#MicrosoftYaHei-49" transform="translate(205.419922 0)"/>
      <use xlink:href="#MicrosoftYaHei-50" transform="translate(234.814453 0)"/>
      <use xlink:href="#MicrosoftYaHei-20" transform="translate(295.996094 0)"/>
      <use xlink:href="#MicrosoftYaHei-52" transform="translate(325.585938 0)"/>
      <use xlink:href="#MicrosoftYaHei-28" transform="translate(390.869141 0)"/>
      <use xlink:href="#MicrosoftYaHei-74" transform="translate(424.267578 0)"/>
      <use xlink:href="#MicrosoftYaHei-29" transform="translate(461.523438 0)"/>
     </g>
    </g>
    <g id="line2d_39">
     <g>
      <use xlink:href="#md5e2385d80" x="368.081875" y="51.765937" style="fill: #ff7f0e; stroke: #ff7f0e"/>
     </g>
    </g>
    <g id="text_22">
     <!-- 附件2节点 -->
     <g transform="translate(386.081875 55.265937) scale(0.1 -0.1)">
      <defs>
       <path id="MicrosoftYaHei-9644" d="M 2225 1622 
Q 2400 453 1613 297 
Q 1350 253 1006 291 
Q 956 547 869 775 
L 869 -841 
L 400 -841 
L 400 5022 
L 2231 5022 
L 2231 4584 
Q 2000 3803 1669 2866 
Q 2150 2178 2225 1622 
z
M 3475 3947 
L 5056 3947 
L 5056 5284 
L 5544 5284 
L 5544 3947 
L 6325 3947 
L 6325 3478 
L 5544 3478 
L 5544 122 
Q 5544 -709 4650 -709 
Q 4281 -709 3900 -697 
Q 3869 -466 3800 -159 
Q 4269 -216 4588 -216 
Q 5056 -216 5056 216 
L 5056 3478 
L 3475 3478 
L 3475 3947 
z
M 2044 2772 
Q 2725 3809 3150 5291 
L 3638 5184 
Q 3459 4606 3244 4088 
L 3244 -828 
L 2769 -828 
L 2769 3081 
Q 2550 2678 2306 2322 
Q 2194 2566 2044 2772 
z
M 1444 747 
Q 1869 828 1731 1641 
Q 1644 2147 1169 2766 
Q 1438 3553 1719 4584 
L 869 4584 
L 869 797 
Q 1200 716 1444 747 
z
M 3581 2747 
L 3975 2934 
Q 4350 2266 4656 1516 
L 4194 1309 
Q 3900 2072 3581 2747 
z
" transform="scale(0.015625)"/>
       <path id="MicrosoftYaHei-4ef6" d="M 1950 1816 
L 4119 1816 
L 4119 3397 
L 2928 3397 
Q 2675 2725 2375 2197 
Q 2194 2372 1963 2528 
Q 2556 3572 2838 4859 
L 3344 4716 
Q 3222 4250 3081 3834 
L 4119 3834 
L 4119 5284 
L 4619 5284 
L 4619 3834 
L 6113 3834 
L 6113 3397 
L 4619 3397 
L 4619 1816 
L 6319 1816 
L 6319 1378 
L 4619 1378 
L 4619 -809 
L 4119 -809 
L 4119 1378 
L 1950 1378 
L 1950 1816 
z
M 69 2191 
Q 931 3466 1456 5278 
L 1969 5128 
Q 1738 4400 1469 3763 
L 1469 -816 
L 975 -816 
L 975 2731 
Q 656 2141 294 1647 
Q 200 1916 69 2191 
z
" transform="scale(0.015625)"/>
       <path id="MicrosoftYaHei-8282" d="M 438 2928 
L 5600 2928 
Q 5538 1622 5475 922 
Q 5406 3 4400 3 
Q 3806 3 3425 41 
Q 3388 341 3325 584 
Q 3869 497 4338 497 
Q 4944 497 4981 1084 
Q 5038 1553 5075 2472 
L 2569 2472 
L 2569 -834 
L 2050 -834 
L 2050 2472 
L 438 2472 
L 438 2928 
z
M 125 4478 
L 1856 4478 
L 1856 5303 
L 2356 5303 
L 2356 4478 
L 4031 4478 
L 4031 5303 
L 4531 5303 
L 4531 4478 
L 6263 4478 
L 6263 4022 
L 4531 4022 
L 4531 3322 
L 4031 3322 
L 4031 4022 
L 2356 4022 
L 2356 3328 
L 1856 3328 
L 1856 4022 
L 125 4022 
L 125 4478 
z
" transform="scale(0.015625)"/>
       <path id="MicrosoftYaHei-70b9" d="M 900 3378 
L 2863 3378 
L 2863 5341 
L 3388 5341 
L 3388 4591 
L 6181 4591 
L 6181 4141 
L 3388 4141 
L 3388 3378 
L 5600 3378 
L 5600 991 
L 5088 991 
L 5088 1253 
L 1413 1253 
L 1413 991 
L 900 991 
L 900 3378 
z
M 5088 2928 
L 1413 2928 
L 1413 1703 
L 5088 1703 
L 5088 2928 
z
M 5425 847 
Q 5925 91 6225 -516 
L 5750 -772 
Q 5438 -134 4994 622 
L 5425 847 
z
M 1369 553 
Q 894 -303 531 -791 
L 100 -484 
Q 506 53 931 803 
L 1369 553 
z
M 2413 828 
Q 2700 197 2913 -503 
L 2406 -678 
Q 2213 3 1963 666 
L 2413 828 
z
M 3906 872 
Q 4206 253 4450 -422 
L 3956 -616 
Q 3781 -53 3450 697 
L 3906 872 
z
" transform="scale(0.015625)"/>
      </defs>
      <use xlink:href="#MicrosoftYaHei-9644"/>
      <use xlink:href="#MicrosoftYaHei-4ef6" transform="translate(100 0)"/>
      <use xlink:href="#MicrosoftYaHei-32" transform="translate(200 0)"/>
      <use xlink:href="#MicrosoftYaHei-8282" transform="translate(258.642578 0)"/>
      <use xlink:href="#MicrosoftYaHei-70b9" transform="translate(358.642578 0)"/>
     </g>
    </g>
    <g id="line2d_40">
     <path d="M 358.081875 67.245625 
L 368.081875 67.245625 
L 378.081875 67.245625 
" style="fill: none; stroke-dasharray: 1.5,2.475; stroke-dashoffset: 0; stroke: #b22222; stroke-width: 1.5"/>
    </g>
    <g id="text_23">
     <!-- t4 -->
     <g transform="translate(386.081875 70.745625) scale(0.1 -0.1)">
      <use xlink:href="#MicrosoftYaHei-74"/>
      <use xlink:href="#MicrosoftYaHei-34" transform="translate(37.255859 0)"/>
     </g>
    </g>
   </g>
  </g>
 </g>
 <defs>
  <clipPath id="p8389ececdb">
   <rect x="42.815625" y="22.7925" width="401.76" height="255.024"/>
  </clipPath>
 </defs>
</svg>
