<?xml version="1.0" encoding="utf-8" standalone="no"?>
<!DOCTYPE svg PUBLIC "-//W3C//DTD SVG 1.1//EN"
  "http://www.w3.org/Graphics/SVG/1.1/DTD/svg11.dtd">
<svg xmlns:xlink="http://www.w3.org/1999/xlink" width="518.4pt" height="331.2pt" viewBox="0 0 518.4 331.2" xmlns="http://www.w3.org/2000/svg" version="1.1">
 <metadata>
  <rdf:RDF xmlns:dc="http://purl.org/dc/elements/1.1/" xmlns:cc="http://creativecommons.org/ns#" xmlns:rdf="http://www.w3.org/1999/02/22-rdf-syntax-ns#">
   <cc:Work>
    <dc:type rdf:resource="http://purl.org/dc/dcmitype/StillImage"/>
    <dc:date>2026-09-13T11:41:00.629492</dc:date>
    <dc:format>image/svg+xml</dc:format>
    <dc:creator>
     <cc:Agent>
      <dc:title>Matplotlib v3.10.6, https://matplotlib.org/</dc:title>
     </cc:Agent>
    </dc:creator>
   </cc:Work>
  </rdf:RDF>
 </metadata>
 <defs>
  <style type="text/css">*{stroke-linejoin: round; stroke-linecap: butt}</style>
 </defs>
 <g id="figure_1">
  <g id="patch_1">
   <path d="M 0 331.2
L 518.4 331.2
L 518.4 0
L 0 0
z
" style="fill: #ffffff"/>
  </g>
  <g id="axes_1">
   <g id="patch_2">
    <path d="M 47.45 286.36
L 507.6 286.36
L 507.6 26.88
L 47.45 26.88
z
" style="fill: #ffffff"/>
   </g>
   <g id="matplotlib.axis_1">
    <g id="xtick_1">
     <g id="line2d_1">
      <path d="M 68.233481 286.36
L 68.233481 26.88
" clip-path="url(#pf97960ef42)" style="fill: none; stroke: #b0b0b0; stroke-opacity: 0.25; stroke-width: 0.8; stroke-linecap: square"/>
     </g>
     <g id="line2d_2">
      <defs>
       <path id="mb46b48c42a" d="M 0 0
L 0 3.5
" style="stroke: #000000; stroke-width: 0.8"/>
      </defs>
      <g>
       <use xlink:href="#mb46b48c42a" x="68.233481" y="286.36" style="stroke: #000000; stroke-width: 0.8"/>
      </g>
     </g>
     <g id="text_1">
      <text style="font-size: 10px; font-family: 'Microsoft YaHei'; text-anchor: middle" x="68.233481" y="301.35375" transform="rotate(-0 68.233481 301.35375)">0</text>
     </g>
    </g>
    <g id="xtick_2">
     <g id="line2d_3">
      <path d="M 147.690095 286.36
L 147.690095 26.88
" clip-path="url(#pf97960ef42)" style="fill: none; stroke: #b0b0b0; stroke-opacity: 0.25; stroke-width: 0.8; stroke-linecap: square"/>
     </g>
     <g id="line2d_4">
      <g>
       <use xlink:href="#mb46b48c42a" x="147.690095" y="286.36" style="stroke: #000000; stroke-width: 0.8"/>
      </g>
     </g>
     <g id="text_2">
      <text style="font-size: 10px; font-family: 'Microsoft YaHei'; text-anchor: middle" x="147.690095" y="301.35375" transform="rotate(-0 147.690095 301.35375)">10</text>
     </g>
    </g>
    <g id="xtick_3">
     <g id="line2d_5">
      <path d="M 227.146709 286.36
L 227.146709 26.88
" clip-path="url(#pf97960ef42)" style="fill: none; stroke: #b0b0b0; stroke-opacity: 0.25; stroke-width: 0.8; stroke-linecap: square"/>
     </g>
     <g id="line2d_6">
      <g>
       <use xlink:href="#mb46b48c42a" x="227.146709" y="286.36" style="stroke: #000000; stroke-width: 0.8"/>
      </g>
     </g>
     <g id="text_3">
      <text style="font-size: 10px; font-family: 'Microsoft YaHei'; text-anchor: middle" x="227.146709" y="301.35375" transform="rotate(-0 227.146709 301.35375)">20</text>
     </g>
    </g>
    <g id="xtick_4">
     <g id="line2d_7">
      <path d="M 306.603323 286.36
L 306.603323 26.88
" clip-path="url(#pf97960ef42)" style="fill: none; stroke: #b0b0b0; stroke-opacity: 0.25; stroke-width: 0.8; stroke-linecap: square"/>
     </g>
     <g id="line2d_8">
      <g>
       <use xlink:href="#mb46b48c42a" x="306.603323" y="286.36" style="stroke: #000000; stroke-width: 0.8"/>
      </g>
     </g>
     <g id="text_4">
      <text style="font-size: 10px; font-family: 'Microsoft YaHei'; text-anchor: middle" x="306.603323" y="301.35375" transform="rotate(-0 306.603323 301.35375)">30</text>
     </g>
    </g>
    <g id="xtick_5">
     <g id="line2d_9">
      <path d="M 386.059937 286.36
L 386.059937 26.88
" clip-path="url(#pf97960ef42)" style="fill: none; stroke: #b0b0b0; stroke-opacity: 0.25; stroke-width: 0.8; stroke-linecap: square"/>
     </g>
     <g id="line2d_10">
      <g>
       <use xlink:href="#mb46b48c42a" x="386.059937" y="286.36" style="stroke: #000000; stroke-width: 0.8"/>
      </g>
     </g>
     <g id="text_5">
      <text style="font-size: 10px; font-family: 'Microsoft YaHei'; text-anchor: middle" x="386.059937" y="301.35375" transform="rotate(-0 386.059937 301.35375)">40</text>
     </g>
    </g>
    <g id="xtick_6">
     <g id="line2d_11">
      <path d="M 465.51655 286.36
L 465.51655 26.88
" clip-path="url(#pf97960ef42)" style="fill: none; stroke: #b0b0b0; stroke-opacity: 0.25; stroke-width: 0.8; stroke-linecap: square"/>
     </g>
     <g id="line2d_12">
      <g>
       <use xlink:href="#mb46b48c42a" x="465.51655" y="286.36" style="stroke: #000000; stroke-width: 0.8"/>
      </g>
     </g>
     <g id="text_6">
      <text style="font-size: 10px; font-family: 'Microsoft YaHei'; text-anchor: middle" x="465.51655" y="301.35375" transform="rotate(-0 465.51655 301.35375)">50</text>
     </g>
    </g>
    <g id="text_7">
     <text style="font-size: 10px; font-family: 'Microsoft YaHei'; text-anchor: middle" x="277.525" y="315.833438" transform="rotate(-0 277.525 315.833438)">时间 t / h</text>
    </g>
   </g>
   <g id="matplotlib.axis_2">
    <g id="ytick_1">
     <g id="line2d_13">
      <path d="M 47.45 274.565455
L 507.6 274.565455
" clip-path="url(#pf97960ef42)" style="fill: none; stroke: #b0b0b0; stroke-opacity: 0.25; stroke-width: 0.8; stroke-linecap: square"/>
     </g>
     <g id="line2d_14">
      <defs>
       <path id="m1c251a9a42" d="M 0 0
L -3.5 0
" style="stroke: #000000; stroke-width: 0.8"/>
      </defs>
      <g>
       <use xlink:href="#m1c251a9a42" x="47.45" y="274.565455" style="stroke: #000000; stroke-width: 0.8"/>
      </g>
     </g>
     <g id="text_8">
      <text style="font-size: 10px; font-family: 'Microsoft YaHei'; text-anchor: end" x="40.45" y="278.56233" transform="rotate(-0 40.45 278.56233)">1.2</text>
     </g>
    </g>
    <g id="ytick_2">
     <g id="line2d_15">
      <path d="M 47.45 244.893169
L 507.6 244.893169
" clip-path="url(#pf97960ef42)" style="fill: none; stroke: #b0b0b0; stroke-opacity: 0.25; stroke-width: 0.8; stroke-linecap: square"/>
     </g>
     <g id="line2d_16">
      <g>
       <use xlink:href="#m1c251a9a42" x="47.45" y="244.893169" style="stroke: #000000; stroke-width: 0.8"/>
      </g>
     </g>
     <g id="text_9">
      <text style="font-size: 10px; font-family: 'Microsoft YaHei'; text-anchor: end" x="40.45" y="248.890044" transform="rotate(-0 40.45 248.890044)">1.3</text>
     </g>
    </g>
    <g id="ytick_3">
     <g id="line2d_17">
      <path d="M 47.45 215.220884
L 507.6 215.220884
" clip-path="url(#pf97960ef42)" style="fill: none; stroke: #b0b0b0; stroke-opacity: 0.25; stroke-width: 0.8; stroke-linecap: square"/>
     </g>
     <g id="line2d_18">
      <g>
       <use xlink:href="#m1c251a9a42" x="47.45" y="215.220884" style="stroke: #000000; stroke-width: 0.8"/>
      </g>
     </g>
     <g id="text_10">
      <text style="font-size: 10px; font-family: 'Microsoft YaHei'; text-anchor: end" x="40.45" y="219.217759" transform="rotate(-0 40.45 219.217759)">1.4</text>
     </g>
    </g>
    <g id="ytick_4">
     <g id="line2d_19">
      <path d="M 47.45 185.548598
L 507.6 185.548598
" clip-path="url(#pf97960ef42)" style="fill: none; stroke: #b0b0b0; stroke-opacity: 0.25; stroke-width: 0.8; stroke-linecap: square"/>
     </g>
     <g id="line2d_20">
      <g>
       <use xlink:href="#m1c251a9a42" x="47.45" y="185.548598" style="stroke: #000000; stroke-width: 0.8"/>
      </g>
     </g>
     <g id="text_11">
      <text style="font-size: 10px; font-family: 'Microsoft YaHei'; text-anchor: end" x="40.45" y="189.545473" transform="rotate(-0 40.45 189.545473)">1.5</text>
     </g>
    </g>
    <g id="ytick_5">
     <g id="line2d_21">
      <path d="M 47.45 155.876313
L 507.6 155.876313
" clip-path="url(#pf97960ef42)" style="fill: none; stroke: #b0b0b0; stroke-opacity: 0.25; stroke-width: 0.8; stroke-linecap: square"/>
     </g>
     <g id="line2d_22">
      <g>
       <use xlink:href="#m1c251a9a42" x="47.45" y="155.876313" style="stroke: #000000; stroke-width: 0.8"/>
      </g>
     </g>
     <g id="text_12">
      <text style="font-size: 10px; font-family: 'Microsoft YaHei'; text-anchor: end" x="40.45" y="159.873188" transform="rotate(-0 40.45 159.873188)">1.6</text>
     </g>
    </g>
    <g id="ytick_6">
     <g id="line2d_23">
      <path d="M 47.45 126.204027
L 507.6 126.204027
" clip-path="url(#pf97960ef42)" style="fill: none; stroke: #b0b0b0; stroke-opacity: 0.25; stroke-width: 0.8; stroke-linecap: square"/>
     </g>
     <g id="line2d_24">
      <g>
       <use xlink:href="#m1c251a9a42" x="47.45" y="126.204027" style="stroke: #000000; stroke-width: 0.8"/>
      </g>
     </g>
     <g id="text_13">
      <text style="font-size: 10px; font-family: 'Microsoft YaHei'; text-anchor: end" x="40.45" y="130.200902" transform="rotate(-0 40.45 130.200902)">1.7</text>
     </g>
    </g>
    <g id="ytick_7">
     <g id="line2d_25">
      <path d="M 47.45 96.531742
L 507.6 96.531742
" clip-path="url(#pf97960ef42)" style="fill: none; stroke: #b0b0b0; stroke-opacity: 0.25; stroke-width: 0.8; stroke-linecap: square"/>
     </g>
     <g id="line2d_26">
      <g>
       <use xlink:href="#m1c251a9a42" x="47.45" y="96.531742" style="stroke: #000000; stroke-width: 0.8"/>
      </g>
     </g>
     <g id="text_14">
      <text style="font-size: 10px; font-family: 'Microsoft YaHei'; text-anchor: end" x="40.45" y="100.528617" transform="rotate(-0 40.45 100.528617)">1.8</text>
     </g>
    </g>
    <g id="ytick_8">
     <g id="line2d_27">
      <path d="M 47.45 66.859456
L 507.6 66.859456
" clip-path="url(#pf97960ef42)" style="fill: none; stroke: #b0b0b0; stroke-opacity: 0.25; stroke-width: 0.8; stroke-linecap: square"/>
     </g>
     <g id="line2d_28">
      <g>
       <use xlink:href="#m1c251a9a42" x="47.45" y="66.859456" style="stroke: #000000; stroke-width: 0.8"/>
      </g>
     </g>
     <g id="text_15">
      <text style="font-size: 10px; font-family: 'Microsoft YaHei'; text-anchor: end" x="40.45" y="70.856331" transform="rotate(-0 40.45 70.856331)">1.9</text>
     </g>
    </g>
    <g id="ytick_9">
     <g id="line2d_29">
      <path d="M 47.45 37.187171
L 507.6 37.187171
" clip-path="url(#pf97960ef42)" style="fill: none; stroke: #b0b0b0; stroke-opacity: 0.25; stroke-width: 0.8; stroke-linecap: square"/>
     </g>
     <g id="line2d_30">
      <g>
       <use xlink:href="#m1c251a9a42" x="47.45" y="37.187171" style="stroke: #000000; stroke-width: 0.8"/>
      </g>
     </g>
     <g id="text_16">
      <text style="font-size: 10px; font-family: 'Microsoft YaHei'; text-anchor: end" x="40.45" y="41.184046" transform="rotate(-0 40.45 41.184046)">2.0</text>
     </g>
    </g>
    <g id="text_17">
     <text style="font-size: 10px; font-family: 'Microsoft YaHei'; text-anchor: middle" x="19.828125" y="156.62" transform="rotate(-90 19.828125 156.62)">半径 R(t) / cm</text>
    </g>
   </g>
   <g id="line2d_31">
    <path d="M 68.365909 38.674545
L 70.087469 56.738099
L 71.544174 69.771469
L 72.736023 78.51797
L 74.0603 86.343
L 76.31157 99.155
L 78.165558 111.83435
L 80.549257 127.849246
L 83.065383 143.602065
L 83.992376 147.954271
L 84.91937 151.093705
L 86.11122 154.272897
L 88.759773 160.936564
L 92.335321 170.910231
L 94.454164 177.736055
L 96.175724 182.944865
L 98.029712 187.682459
L 102.267398 197.626213
L 104.121385 201.529886
L 105.710518 204.299575
L 108.226644 208.599074
L 110.213059 212.660379
L 112.331902 216.845229
L 114.980456 221.480199
L 116.702016 224.082633
L 125.707099 236.311222
L 127.428659 238.279638
L 128.752936 239.436994
L 133.387905 243.07524
L 135.639175 245.093037
L 137.09588 246.03195
L 140.539 248.12547
L 145.041541 251.372961
L 148.484661 253.342935
L 152.060209 255.16964
L 157.887027 257.970253
L 160.00587 259.009017
L 162.786852 260.055048
L 166.362399 261.16189
L 178.413319 264.524617
L 180.797018 265.156671
L 184.504993 266.216107
L 192.450654 267.916102
L 200.263888 269.006392
L 205.031285 269.454077
L 212.314808 270.504645
L 243.170459 272.785117
L 248.599995 272.889564
L 251.380976 273.08184
L 256.545656 273.186287
L 259.326638 273.378563
L 264.491317 273.48301
L 267.272299 273.675286
L 280.38264 273.779732
L 283.163622 273.972009
L 300.246794 274.076455
L 303.027775 274.268732
L 343.947931 274.373178
L 346.728913 274.565455
L 486.684091 274.565455
L 486.684091 274.565455
" clip-path="url(#pf97960ef42)" style="fill: none; stroke: #1f77b4; stroke-width: 1.5; stroke-linecap: square"/>
   </g>
   <g id="line2d_32">
    <path d="M 486.684091 286.36
L 486.684091 26.88
" clip-path="url(#pf97960ef42)" style="fill: none; stroke-dasharray: 1.5,2.475; stroke-dashoffset: 0; stroke: #b22222; stroke-width: 1.5"/>
   </g>
   <g id="patch_3">
    <path d="M 47.45 286.36
L 47.45 26.88
" style="fill: none; stroke: #000000; stroke-width: 0.8; stroke-linejoin: miter; stroke-linecap: square"/>
   </g>
   <g id="patch_4">
    <path d="M 507.6 286.36
L 507.6 26.88
" style="fill: none; stroke: #000000; stroke-width: 0.8; stroke-linejoin: miter; stroke-linecap: square"/>
   </g>
   <g id="patch_5">
    <path d="M 47.45 286.36
L 507.6 286.36
" style="fill: none; stroke: #000000; stroke-width: 0.8; stroke-linejoin: miter; stroke-linecap: square"/>
   </g>
   <g id="patch_6">
    <path d="M 47.45 26.88
L 507.6 26.88
" style="fill: none; stroke: #000000; stroke-width: 0.8; stroke-linejoin: miter; stroke-linecap: square"/>
   </g>
   <g id="text_18">
    <text style="font-size: 12px; font-family: 'Microsoft YaHei'; text-anchor: middle" x="277.525" y="20.88" transform="rotate(-0 277.525 20.88)">问题四药材半径演化</text>
   </g>
   <g id="legend_1">
    <g id="line2d_33">
     <path d="M 233.525 40.37375
L 243.525 40.37375
L 253.525 40.37375
" style="fill: none; stroke: #1f77b4; stroke-width: 1.5; stroke-linecap: square"/>
    </g>
    <g id="text_19">
     <text style="font-size: 10px; font-family: 'Microsoft YaHei'; text-anchor: start" x="261.525" y="43.87375" transform="rotate(-0 261.525 43.87375)">半径 R(t)</text>
    </g>
    <g id="line2d_34">
     <path d="M 233.525 55.853438
L 243.525 55.853438
L 253.525 55.853438
" style="fill: none; stroke-dasharray: 1.5,2.475; stroke-dashoffset: 0; stroke: #b22222; stroke-width: 1.5"/>
    </g>
    <g id="text_20">
     <text style="font-size: 10px; font-family: 'Microsoft YaHei'; text-anchor: start" x="261.525" y="59.353438" transform="rotate(-0 261.525 59.353438)">烘干结束时刻</text>
    </g>
   </g>
  </g>
 </g>
 <defs>
  <clipPath id="pf97960ef42">
   <rect x="47.45" y="26.88" width="460.15" height="259.48"/>
  </clipPath>
 </defs>
</svg>
